<svg width="36" height="40" viewBox="0 0 36 40" fill="none" xmlns="http://www.w3.org/2000/svg">
<path d="M31.3905 0H4.16508C1.86921 0 0 1.83731 0 4.11397V31.1144C0 33.3911 1.86921 35.2284 4.16508 35.2284H27.2051L26.1283 31.5338L28.7289 33.9103L31.1873 36.147L35.5556 39.9415V4.11397C35.5556 1.83731 33.6864 0 31.3905 0ZM23.5479 26.0818C23.5479 26.0818 22.8165 25.2231 22.207 24.4642C24.8686 23.7252 25.8844 22.0876 25.8844 22.0876C25.0514 22.6269 24.259 23.0063 23.5479 23.2659C22.5321 23.6853 21.5568 23.9649 20.6019 24.1247C18.6514 24.4841 16.8635 24.3843 15.3397 24.1047C14.1816 23.885 13.186 23.5655 12.353 23.2459C11.8857 23.0662 11.3778 22.8465 10.8698 22.5669C10.8089 22.527 10.7479 22.507 10.687 22.4671C10.6463 22.4471 10.626 22.4271 10.6057 22.4072C10.24 22.2075 10.0368 22.0677 10.0368 22.0677C10.0368 22.0677 11.0121 23.6653 13.5924 24.4242C12.9829 25.1831 12.2311 26.0818 12.2311 26.0818C7.74095 25.942 6.03429 23.0462 6.03429 23.0462C6.03429 16.6157 8.96 11.4033 8.96 11.4033C11.8857 9.24646 14.6692 9.30637 14.6692 9.30637L14.8724 9.54602C11.2152 10.5845 9.52889 12.1622 9.52889 12.1622C9.52889 12.1622 9.97587 11.9225 10.7276 11.583C12.9016 10.6444 14.6286 10.3848 15.3397 10.3249C15.4616 10.3049 15.5632 10.2849 15.6851 10.2849C16.9244 10.1252 18.3263 10.0852 19.7892 10.245C21.7194 10.4647 23.7917 11.0239 25.9048 12.1622C25.9048 12.1622 24.2997 10.6644 20.8457 9.6259L21.1302 9.30637C21.1302 9.30637 23.9137 9.24646 26.8394 11.4033C26.8394 11.4033 29.7651 16.6157 29.7651 23.0462C29.7651 23.0462 28.0381 25.942 23.5479 26.0818ZM14.1003 16.7555C12.9422 16.7555 12.0279 17.754 12.0279 18.9722C12.0279 20.1904 12.9625 21.189 14.1003 21.189C15.2584 21.189 16.1727 20.1904 16.1727 18.9722C16.193 17.754 15.2584 16.7555 14.1003 16.7555ZM21.5162 16.7555C20.3581 16.7555 19.4438 17.754 19.4438 18.9722C19.4438 20.1904 20.3784 21.189 21.5162 21.189C22.6743 21.189 23.5886 20.1904 23.5886 18.9722C23.5886 17.754 22.6743 16.7555 21.5162 16.7555Z" fill="black"/>
</svg>
