<svg width="40" height="34" viewBox="0 0 40 34" fill="none" xmlns="http://www.w3.org/2000/svg">
<path d="M39.0933 4.40491C38.4649 4.68362 37.8188 4.91885 37.1587 5.10982C37.9402 4.22594 38.5361 3.18594 38.8998 2.04788C38.9814 1.79278 38.8969 1.51356 38.6872 1.34672C38.4778 1.17975 38.1868 1.15975 37.9562 1.2964C36.5543 2.12788 35.0418 2.72543 33.4558 3.07485C31.8583 1.51381 29.6885 0.625427 27.4454 0.625427C22.7106 0.625427 18.8584 4.47743 18.8584 9.21214C18.8584 9.58504 18.882 9.95588 18.9287 10.3216C13.0533 9.80569 7.59095 6.91781 3.83998 2.31665C3.7063 2.15265 3.50037 2.06427 3.28953 2.08117C3.07856 2.09769 2.88901 2.21665 2.78243 2.39949C2.02166 3.70491 1.61946 5.19794 1.61946 6.71704C1.61946 8.78607 2.35817 10.7492 3.66308 12.2831C3.2663 12.1457 2.88127 11.9739 2.51379 11.7699C2.3165 11.6601 2.07572 11.6618 1.87972 11.7742C1.68359 11.8866 1.56062 12.0933 1.55546 12.3192C1.55456 12.3573 1.55456 12.3954 1.55456 12.4339C1.55456 15.5223 3.21675 18.3028 5.75804 19.8183C5.53972 19.7965 5.32153 19.7649 5.10475 19.7235C4.88127 19.6808 4.65146 19.7591 4.50075 19.9296C4.34979 20.0999 4.29985 20.3373 4.3694 20.5541C5.31004 23.4908 7.73185 25.651 10.6596 26.3096C8.23133 27.8305 5.45443 28.6271 2.53933 28.6271C1.93108 28.6271 1.31933 28.5914 0.720625 28.5205C0.423206 28.4852 0.138819 28.6608 0.0375286 28.9436C-0.0637617 29.2266 0.0435931 29.5421 0.296625 29.7043C4.04153 32.1054 8.37172 33.3746 12.8188 33.3746C21.5613 33.3746 27.0303 29.252 30.0787 25.7936C33.88 21.4812 36.0601 15.7732 36.0601 10.1333C36.0601 9.89769 36.0565 9.65975 36.0493 9.42259C37.549 8.29265 38.8402 6.92517 39.8909 5.35343C40.0505 5.11472 40.0333 4.79923 39.8484 4.57949C39.6637 4.35962 39.356 4.28852 39.0933 4.40491Z" fill="black"/>
</svg>
