<svg width="40" height="40" viewBox="0 0 40 40" fill="none" xmlns="http://www.w3.org/2000/svg">
<g clipPath="url(#clip0_1001_165)">
<path d="M39.0476 20C39.0476 31.05 30.3107 40 19.5238 40C8.7369 40 0 31.05 0 20C0 8.95 8.7369 0 19.5238 0C30.3107 0 39.0476 8.95 39.0476 20Z" fill="black"/>
<path d="M15.9444 29.1667C15.3099 29.1667 15.4238 28.9167 15.196 28.3L13.3412 22.0334L24.8603 14.6667L26.2107 15.0334L25.0881 18.1667L15.9444 29.1667Z" fill="#C8DAEA"/>
<path d="M15.9445 29.1667C16.4326 29.1667 16.6441 28.9333 16.9206 28.6667C17.3437 28.25 22.7778 22.8333 22.7778 22.8333L19.4425 22L16.3512 24L15.9445 29V29.1667Z" fill="#A9C9DD"/>
<path d="M16.2699 24.0666L24.1445 30.0166C25.0393 30.5166 25.6901 30.2666 25.9179 29.1666L29.123 13.7C29.4484 12.35 28.6187 11.75 27.7564 12.15L8.94843 19.5833C7.66311 20.1166 7.67938 20.85 8.72065 21.1666L13.5528 22.7166L24.7302 15.5C25.2508 15.1666 25.7389 15.35 25.3484 15.7166L16.2699 24.0666Z" fill="url(#paint0_linear_1001_165)"/>
</g>
<defs>
<linearGradient id="paint0_linear_1001_165" x1="20.9866" y1="20.6258" x2="25.1966" y2="27.2013" gradientUnits="userSpaceOnUse">
<stop stop-color="#EFF7FC"/>
<stop offset="1" stop-color="white"/>
</linearGradient>
<clipPath id="clip0_1001_165">
<rect width="39.0476" height="40" fill="white"/>
</clipPath>
</defs>
</svg>
