<svg width="24" height="24" viewBox="0 0 24 24" fill="none" xmlns="http://www.w3.org/2000/svg">
<path fill-rule="evenodd" clip-rule="evenodd" d="M11.9996 4C16.0996 4 19.8996 6.91 21.9196 11.6C21.9746 11.7262 22.0031 11.8623 22.0031 12C22.0031 12.1377 21.9746 12.2738 21.9196 12.4C19.8996 17.09 16.0996 20 11.9996 20C7.89958 20 4.09958 17.09 2.07958 12.4C2.02452 12.2738 1.99609 12.1377 1.99609 12C1.99609 11.8623 2.02452 11.7262 2.07958 11.6C4.09958 6.91 7.89958 4 11.9996 4ZM4.09958 12C5.82958 15.71 8.81958 18 11.9996 18C15.1796 18 18.1696 15.71 19.8996 12C18.1696 8.29 15.1796 6 11.9996 6C8.81958 6 5.82958 8.29 4.09958 12ZM7.99958 12C7.99957 12.2608 8.02507 12.5221 8.07644 12.7804C8.23078 13.5563 8.61174 14.269 9.17115 14.8284C9.73056 15.3878 10.4433 15.7688 11.2192 15.9231C11.9951 16.0775 12.7994 15.9983 13.5303 15.6955C14.2612 15.3928 14.8859 14.8801 15.3255 14.2223C15.765 13.5645 15.9996 12.7911 15.9996 12C15.9996 11.9923 15.9996 11.9846 15.9995 11.9769V12H13.9996C13.9996 12.5304 13.7889 13.0391 13.4138 13.4142C13.0387 13.7893 12.53 14 11.9996 14C11.604 14 11.2173 13.8827 10.8884 13.6629C10.5595 13.4432 10.3032 13.1308 10.1518 12.7654C10.0508 12.5215 9.99958 12.2614 9.99958 12H7.99958Z" fill="#AFC5B8"/>
</svg>
