<svg width="40" height="40" viewBox="0 0 40 40" fill="none" xmlns="http://www.w3.org/2000/svg">
<path d="M29.2332 13.4113C28.5734 13.0331 27.725 13.0331 26.9708 13.4113L21.6919 16.5314L18.1098 18.5169L12.9251 21.637C12.2652 22.0152 11.4168 22.0152 10.6627 21.637L6.60921 19.1787C5.94934 18.8006 5.47801 18.0442 5.47801 17.1932V12.4658C5.47801 11.7094 5.85508 10.9531 6.60921 10.4803L10.6627 8.11661C11.3226 7.73842 12.171 7.73842 12.9251 8.11661L16.9786 10.5749C17.6384 10.9531 18.1098 11.7094 18.1098 12.5604V15.6805L21.6919 13.6004V10.3858C21.6919 9.62939 21.3148 8.873 20.5607 8.40026L13.0194 3.9565C12.3595 3.5783 11.5111 3.5783 10.7569 3.9565L3.02708 8.49481C2.27294 8.873 1.89587 9.62939 1.89587 10.3858V19.2733C1.89587 20.0297 2.27294 20.7861 3.02708 21.2588L10.6627 25.7026C11.3226 26.0808 12.171 26.0808 12.9251 25.7026L18.1098 22.677L21.6919 20.597L26.8766 17.5714C27.5364 17.1932 28.3848 17.1932 29.139 17.5714L33.1924 19.9351C33.8523 20.3133 34.3236 21.0697 34.3236 21.9206V26.6481C34.3236 27.4044 33.9466 28.1608 33.1924 28.6336L29.2332 30.9973C28.5734 31.3755 27.725 31.3755 26.9708 30.9973L22.9174 28.6336C22.2575 28.2554 21.7862 27.499 21.7862 26.6481V23.6225L18.204 25.7026V28.8227C18.204 29.579 18.5811 30.3354 19.3352 30.8082L26.9708 35.2519C27.6307 35.6301 28.4791 35.6301 29.2332 35.2519L36.8688 30.8082C37.5287 30.43 38 29.6736 38 28.8227V19.8406C38 19.0842 37.623 18.3278 36.8688 17.8551L29.2332 13.4113Z" fill="#8247E5"/>
</svg>
