<svg width="432" height="94" viewBox="0 0 432 94" fill="none" xmlns="http://www.w3.org/2000/svg">
<g clip-path="url(#clip0_1331_8711)">
<path d="M48.5696 16.4439C45.887 16.4431 43.2547 17.1735 40.9556 18.5567C38.6565 19.94 36.7773 21.9238 35.5199 24.2951L35.6146 24.5662L35.3115 25.2411C34.7221 26.5536 34.3307 27.9463 34.1502 29.3738C34.1398 29.4506 34.1303 29.5264 34.1218 29.6032C38.4602 29.8976 42.5773 31.6286 45.8239 34.5234C49.0705 37.4182 51.2619 41.3121 52.0525 45.591C52.1273 45.573 52.2012 45.554 52.2751 45.5341C55.7547 44.6323 58.7864 42.4919 60.802 39.5137C62.8176 36.5355 63.6788 32.9241 63.2243 29.356C62.7698 25.788 61.0308 22.5082 58.3331 20.1313C55.6353 17.7543 52.164 16.4433 48.5696 16.4439ZM33.9674 2.40401C30.7279 4.98886 29.1584 10.1415 30.5707 14.5273C30.9345 15.6675 31.5026 16.7319 32.2472 17.6686C32.3306 17.6022 32.4121 17.5349 32.4926 17.4667C36.9928 13.6287 37.15 6.3993 33.9674 2.40401ZM26.4512 23.4383C22.0173 20.1634 15.3916 21.0809 12.0479 24.5833C15.6862 28.0601 22.7391 28.5852 26.9836 24.6364C27.1238 24.5068 27.2608 24.3716 27.3947 24.2307C27.0974 23.9466 26.7823 23.682 26.4512 23.4383ZM33.9674 2.40401C30.7279 4.98886 29.1584 10.1415 30.5707 14.5273C30.9345 15.6675 31.5026 16.7319 32.2472 17.6686C32.3306 17.6022 32.4121 17.5349 32.4926 17.4667C36.9928 13.6287 37.15 6.3993 33.9674 2.40401ZM26.4512 23.4383C22.0173 20.1634 15.3916 21.0809 12.0479 24.5833C15.6862 28.0601 22.7391 28.5852 26.9836 24.6364C27.1238 24.5068 27.2608 24.3716 27.3947 24.2307C27.0974 23.9466 26.7823 23.682 26.4512 23.4383ZM33.9674 2.40401C30.7279 4.98886 29.1584 10.1415 30.5707 14.5273C30.9345 15.6675 31.5026 16.7319 32.2472 17.6686C32.3306 17.6022 32.4121 17.5349 32.4926 17.4667C36.9928 13.6287 37.15 6.3993 33.9674 2.40401ZM26.4512 23.4383C22.0173 20.1634 15.3916 21.0809 12.0479 24.5833C15.6862 28.0601 22.7391 28.5852 26.9836 24.6364C27.1238 24.5068 27.2608 24.3716 27.3947 24.2307C27.0974 23.9466 26.7823 23.682 26.4512 23.4383ZM33.9674 2.40401C30.7279 4.98886 29.1584 10.1415 30.5707 14.5273C30.9345 15.6675 31.5026 16.7319 32.2472 17.6686C32.3306 17.6022 32.4121 17.5349 32.4926 17.4667C36.9928 13.6287 37.15 6.3993 33.9674 2.40401ZM26.4512 23.4383C22.0173 20.1634 15.3916 21.0809 12.0479 24.5833C15.6862 28.0601 22.7391 28.5852 26.9836 24.6364C27.1238 24.5068 27.2608 24.3716 27.3947 24.2307C27.0974 23.9466 26.7823 23.682 26.4512 23.4383ZM33.9674 2.40401C30.7279 4.98886 29.1584 10.1415 30.5707 14.5273C30.9345 15.6675 31.5026 16.7319 32.2472 17.6686C32.3306 17.6022 32.4121 17.5349 32.4926 17.4667C36.9928 13.6287 37.15 6.3993 33.9674 2.40401ZM48.5696 16.4439C44.9742 16.4416 41.5016 17.7526 38.8037 20.1309C36.1059 22.5091 34.3683 25.7911 33.9172 29.3606C33.9068 29.4364 33.8982 29.5122 33.8897 29.589C33.9655 29.589 34.0422 29.5975 34.118 29.6032C38.4564 29.8976 42.5736 31.6286 45.8202 34.5234C49.0668 37.4182 51.2581 41.3121 52.0487 45.591C52.1236 45.573 52.1974 45.554 52.2713 45.5341C55.7506 44.6324 58.7821 42.4922 60.7977 39.5145C62.8133 36.5367 63.6748 32.9257 63.2208 29.3579C62.7668 25.7901 61.0284 22.5104 58.3314 20.1331C55.6344 17.7559 52.1637 16.4442 48.5696 16.4439ZM33.4739 24.1558C32.9962 22.7677 32.4266 21.4131 31.7689 20.1008C30.9444 18.458 29.9733 16.893 28.8676 15.4249C27.1039 13.0856 24.9196 10.9424 22.2636 9.27893C21.777 8.98081 21.1925 8.88691 20.6372 9.01764C20.0818 9.14837 19.6004 9.49317 19.2977 9.97709C18.9949 10.461 18.8952 11.0449 19.0203 11.602C19.1454 12.159 19.4851 12.6442 19.9657 12.9519C23.6409 15.2534 26.2561 18.734 27.98 22.2269C28.4389 23.1545 28.8465 24.1067 29.201 25.079C29.7301 26.5044 30.1317 27.974 30.4011 29.4705C30.4153 29.5463 30.4276 29.6222 30.44 29.697C30.9477 29.6364 31.4629 29.5947 31.982 29.5729L32.2131 29.5653L32.2302 29.4051L32.2387 29.334C32.4308 27.6511 32.8816 26.008 33.5752 24.4629C33.5411 24.3624 33.5089 24.2572 33.4701 24.1558H33.4739ZM26.455 23.4383C22.0211 20.1634 15.3954 21.0809 12.0517 24.5833C15.69 28.0601 22.7429 28.5852 26.9874 24.6364C27.1276 24.5068 27.2646 24.3716 27.3985 24.2307C27.1 23.9465 26.7836 23.6818 26.4512 23.4383H26.455ZM33.9712 2.40401C30.7317 4.98886 29.1622 10.1415 30.5745 14.5273C30.9383 15.6675 31.5064 16.7319 32.251 17.6686C32.3344 17.6022 32.4158 17.5349 32.4964 17.4667C36.9928 13.6287 37.15 6.3993 33.9674 2.40401H33.9712ZM33.4739 24.1558C32.9962 22.7677 32.4266 21.4131 31.7689 20.1008C30.9444 18.458 29.9733 16.893 28.8676 15.4249C27.1039 13.0856 24.9196 10.9424 22.2636 9.27893C21.777 8.98081 21.1925 8.88691 20.6372 9.01764C20.0818 9.14837 19.6004 9.49317 19.2977 9.97709C18.9949 10.461 18.8952 11.0449 19.0203 11.602C19.1454 12.159 19.4851 12.6442 19.9657 12.9519C23.6409 15.2534 26.2561 18.734 27.98 22.2269C28.4389 23.1545 28.8465 24.1067 29.201 25.079C29.7301 26.5044 30.1317 27.974 30.4011 29.4705C30.4153 29.5463 30.4276 29.6222 30.44 29.697C30.9477 29.6364 31.4629 29.5947 31.982 29.5729L32.2131 29.5653L32.2302 29.4051L32.2387 29.334C32.4308 27.6511 32.8816 26.008 33.5752 24.4629C33.5411 24.3624 33.5089 24.2572 33.4701 24.1558H33.4739ZM48.5696 16.4439C44.9742 16.4416 41.5016 17.7526 38.8037 20.1309C36.1059 22.5091 34.3683 25.7911 33.9172 29.3606C33.9068 29.4364 33.8982 29.5122 33.8897 29.589C33.9655 29.589 34.0422 29.5975 34.118 29.6032C38.4564 29.8976 42.5736 31.6286 45.8202 34.5234C49.0668 37.4182 51.2581 41.3121 52.0487 45.591C52.1236 45.573 52.1974 45.554 52.2713 45.5341C55.7506 44.6324 58.7821 42.4922 60.7977 39.5145C62.8133 36.5367 63.6748 32.9257 63.2208 29.3579C62.7668 25.7901 61.0284 22.5104 58.3314 20.1331C55.6344 17.7559 52.1637 16.4442 48.5696 16.4439ZM26.455 23.4383C22.0211 20.1634 15.3954 21.0809 12.0517 24.5833C15.69 28.0601 22.7429 28.5852 26.9874 24.6364C27.1276 24.5068 27.2646 24.3716 27.3985 24.2307C27.1 23.9465 26.7836 23.6818 26.4512 23.4383H26.455ZM33.9712 2.40401C30.7317 4.98886 29.1622 10.1415 30.5745 14.5273C30.9383 15.6675 31.5064 16.7319 32.251 17.6686C32.3344 17.6022 32.4158 17.5349 32.4964 17.4667C36.9928 13.6287 37.15 6.3993 33.9674 2.40401H33.9712ZM33.4739 24.1558C32.9962 22.7677 32.4266 21.4131 31.7689 20.1008C30.9444 18.458 29.9733 16.893 28.8676 15.4249C27.1039 13.0856 24.9196 10.9424 22.2636 9.27893C21.777 8.98081 21.1925 8.88691 20.6372 9.01764C20.0818 9.14837 19.6004 9.49317 19.2977 9.97709C18.9949 10.461 18.8952 11.0449 19.0203 11.602C19.1454 12.159 19.4851 12.6442 19.9657 12.9519C23.6409 15.2534 26.2561 18.734 27.98 22.2269C28.4389 23.1545 28.8465 24.1067 29.201 25.079C29.7301 26.5044 30.1317 27.974 30.4011 29.4705C30.4153 29.5463 30.4276 29.6222 30.44 29.697C30.9477 29.6364 31.4629 29.5947 31.982 29.5729L32.2131 29.5653L32.2302 29.4051L32.2387 29.334C32.4308 27.6511 32.8816 26.008 33.5752 24.4629C33.5411 24.3624 33.5089 24.2572 33.4701 24.1558H33.4739ZM50.6137 47.3161C49.7328 38.6516 42.6884 31.8108 33.9361 31.2601C33.5572 31.2367 33.1765 31.2247 32.7938 31.2241C32.4604 31.2241 32.1295 31.2332 31.8011 31.2516C30.8053 31.3055 29.8158 31.4428 28.843 31.662C20.8513 33.463 14.881 40.608 14.881 49.1493C14.879 51.9649 15.5406 54.7412 16.8121 57.2529C18.0837 59.7645 19.9294 61.9406 22.1992 63.6043L22.3886 63.7408C24.2944 61.5049 26.9423 60.0321 29.8461 59.5929L29.8764 59.3531C29.9531 59.3418 30.0308 59.3304 30.1094 59.3218C30.9988 52.0232 37.2277 46.3531 44.7561 46.3531C46.7199 46.3508 48.6641 46.743 50.4735 47.5066L50.6383 47.5777C50.627 47.4905 50.6184 47.4033 50.6099 47.3161H50.6137ZM48.5696 16.4439C44.9742 16.4416 41.5016 17.7526 38.8037 20.1309C36.1059 22.5091 34.3683 25.7911 33.9172 29.3606C33.9068 29.4364 33.8982 29.5122 33.8897 29.589C33.9655 29.589 34.0422 29.5975 34.118 29.6032C38.4564 29.8976 42.5736 31.6286 45.8202 34.5234C49.0668 37.4182 51.2581 41.3121 52.0487 45.591C52.1236 45.573 52.1974 45.554 52.2713 45.5341C55.7506 44.6324 58.7821 42.4922 60.7977 39.5145C62.8133 36.5367 63.6748 32.9257 63.2208 29.3579C62.7668 25.7901 61.0284 22.5104 58.3314 20.1331C55.6344 17.7559 52.1637 16.4442 48.5696 16.4439ZM26.455 23.4383C22.0211 20.1634 15.3954 21.0809 12.0517 24.5833C15.69 28.0601 22.7429 28.5852 26.9874 24.6364C27.1276 24.5068 27.2646 24.3716 27.3985 24.2307C27.1 23.9465 26.7836 23.6818 26.4512 23.4383H26.455ZM33.9712 2.40401C30.7317 4.98886 29.1622 10.1415 30.5745 14.5273C30.9383 15.6675 31.5064 16.7319 32.251 17.6686C32.3344 17.6022 32.4158 17.5349 32.4964 17.4667C36.9928 13.6287 37.15 6.3993 33.9674 2.40401H33.9712ZM33.4739 24.1558C32.9962 22.7677 32.4266 21.4131 31.7689 20.1008C30.9444 18.458 29.9733 16.893 28.8676 15.4249C27.1039 13.0856 24.9196 10.9424 22.2636 9.27893C21.777 8.98081 21.1925 8.88691 20.6372 9.01764C20.0818 9.14837 19.6004 9.49317 19.2977 9.97709C18.9949 10.461 18.8952 11.0449 19.0203 11.602C19.1454 12.159 19.4851 12.6442 19.9657 12.9519C23.6409 15.2534 26.2561 18.734 27.98 22.2269C28.4389 23.1545 28.8465 24.1067 29.201 25.079C29.7301 26.5044 30.1317 27.974 30.4011 29.4705C30.4153 29.5463 30.4276 29.6222 30.44 29.697C30.9477 29.6364 31.4629 29.5947 31.982 29.5729L32.2131 29.5653L32.2302 29.4051L32.2387 29.334C32.4308 27.6511 32.8816 26.008 33.5752 24.4629C33.5411 24.3624 33.5089 24.2572 33.4701 24.1558H33.4739ZM50.6137 47.3161C49.7328 38.6516 42.6884 31.8108 33.9361 31.2601C33.5572 31.2367 33.1765 31.2247 32.7938 31.2241C32.4604 31.2241 32.1295 31.2332 31.8011 31.2516C30.8053 31.3055 29.8158 31.4428 28.843 31.662C20.8513 33.463 14.881 40.608 14.881 49.1493C14.879 51.9649 15.5406 54.7412 16.8121 57.2529C18.0837 59.7645 19.9294 61.9406 22.1992 63.6043L22.3886 63.7408C24.2944 61.5049 26.9423 60.0321 29.8461 59.5929C29.9237 59.5806 30.0033 59.5702 30.0819 59.5598C30.0904 59.4801 30.099 59.4005 30.1094 59.3218C30.9988 52.0232 37.2277 46.3531 44.7561 46.3531C46.7199 46.3508 48.6641 46.743 50.4735 47.5066L50.6383 47.5777C50.627 47.4905 50.6184 47.4033 50.6099 47.3161H50.6137ZM48.5696 16.4439C44.9742 16.4416 41.5016 17.7526 38.8037 20.1309C36.1059 22.5091 34.3683 25.7911 33.9172 29.3606C33.9068 29.4364 33.8982 29.5122 33.8897 29.589C33.9655 29.589 34.0422 29.5975 34.118 29.6032C38.4564 29.8976 42.5736 31.6286 45.8202 34.5234C49.0668 37.4182 51.2581 41.3121 52.0487 45.591C52.1236 45.573 52.1974 45.554 52.2713 45.5341C55.7506 44.6324 58.7821 42.4922 60.7977 39.5145C62.8133 36.5367 63.6748 32.9257 63.2208 29.3579C62.7668 25.7901 61.0284 22.5104 58.3314 20.1331C55.6344 17.7559 52.1637 16.4442 48.5696 16.4439ZM37.6956 0.642883C36.8115 0.642883 35.9344 0.674479 35.0643 0.737671L35.4517 1.22297C37.3546 3.61066 38.28 6.92158 37.9902 10.3055C37.6814 13.9074 36.0626 17.0524 33.4322 19.152L33.4152 19.1652C33.921 20.1653 34.3415 21.1198 34.6901 21.9928C36.2122 19.7042 38.2755 17.8272 40.6968 16.5285C43.1181 15.2297 45.8224 14.5495 48.5696 14.5482C57.7576 14.5482 65.2339 22.0288 65.2339 31.2241C65.2332 34.9581 63.9806 38.584 61.6767 41.5213C59.3727 44.4586 56.1506 46.5374 52.5261 47.4251L52.6066 48.3512C55.8427 50.3405 58.2025 53.4861 59.2083 57.151C60.2141 60.8159 59.7906 64.7263 58.0237 68.0906C67.9306 61.5001 74.4598 50.2289 74.4598 37.4317C74.456 17.114 57.9963 0.642883 37.6918 0.642883H37.6956ZM48.5696 16.4439C44.9742 16.4416 41.5016 17.7526 38.8037 20.1309C36.1059 22.5091 34.3683 25.7911 33.9172 29.3606C33.9068 29.4364 33.8982 29.5122 33.8897 29.589C33.9655 29.589 34.0422 29.5975 34.118 29.6032C38.4564 29.8976 42.5736 31.6286 45.8202 34.5234C49.0668 37.4182 51.2581 41.3121 52.0487 45.591C52.1236 45.573 52.1974 45.554 52.2713 45.5341C55.7506 44.6324 58.7821 42.4922 60.7977 39.5145C62.8133 36.5367 63.6748 32.9257 63.2208 29.3579C62.7668 25.7901 61.0284 22.5104 58.3314 20.1331C55.6344 17.7559 52.1637 16.4442 48.5696 16.4439ZM50.6137 47.3161C49.7328 38.6516 42.6884 31.8108 33.9361 31.2601C33.5572 31.2367 33.1765 31.2247 32.7938 31.2241C32.4604 31.2241 32.1295 31.2332 31.8011 31.2516C30.8053 31.3055 29.8158 31.4428 28.843 31.662C20.8513 33.463 14.881 40.608 14.881 49.1493C14.879 51.9649 15.5406 54.7412 16.8121 57.2529C18.0837 59.7645 19.9294 61.9406 22.1992 63.6043L22.3886 63.7408C24.2944 61.5049 26.9423 60.0321 29.8461 59.5929C29.9237 59.5806 30.0033 59.5702 30.0819 59.5598C30.0904 59.4801 30.099 59.4005 30.1094 59.3218C30.9988 52.0232 37.2277 46.3531 44.7561 46.3531C46.7199 46.3508 48.6641 46.743 50.4735 47.5066L50.6383 47.5777C50.627 47.4905 50.6184 47.4033 50.6099 47.3161H50.6137ZM33.4701 24.1558C32.9924 22.7677 32.4228 21.4131 31.7651 20.1008C30.9418 18.4581 29.972 16.8932 28.8676 15.4249C27.1039 13.0856 24.9196 10.9424 22.2636 9.27893C21.777 8.98081 21.1925 8.88691 20.6372 9.01764C20.0818 9.14837 19.6004 9.49317 19.2977 9.97709C18.9949 10.461 18.8952 11.0449 19.0203 11.602C19.1454 12.159 19.4851 12.6442 19.9657 12.9519C23.6409 15.2534 26.2561 18.734 27.98 22.2269C28.4389 23.1545 28.8465 24.1067 29.201 25.079C29.7301 26.5044 30.1317 27.974 30.4011 29.4705C30.4153 29.5463 30.4276 29.6222 30.44 29.697C30.9477 29.6364 31.4629 29.5947 31.982 29.5729L32.2131 29.5653L32.2302 29.4051L32.2387 29.334C32.4308 27.6511 32.8816 26.008 33.5752 24.4629C33.5411 24.3624 33.5089 24.2572 33.4701 24.1558ZM33.9674 2.40401C30.7279 4.98886 29.1584 10.1415 30.5707 14.5273C30.9345 15.6675 31.5026 16.7319 32.2472 17.6686C32.3306 17.6022 32.4121 17.5349 32.4926 17.4667C36.9928 13.6287 37.15 6.3993 33.9674 2.40401ZM26.4512 23.4383C22.0173 20.1634 15.3916 21.0809 12.0479 24.5833C15.6862 28.0601 22.7391 28.5852 26.9836 24.6364C27.1238 24.5068 27.2608 24.3716 27.3947 24.2307C27.0974 23.9466 26.7823 23.682 26.4512 23.4383ZM48.5696 16.4439C44.9742 16.4416 41.5016 17.7526 38.8037 20.1309C36.1059 22.5091 34.3683 25.7911 33.9172 29.3606C33.9068 29.4364 33.8982 29.5122 33.8897 29.589C33.9655 29.589 34.0422 29.5975 34.118 29.6032C38.4564 29.8976 42.5736 31.6286 45.8202 34.5234C49.0668 37.4182 51.2581 41.3121 52.0487 45.591C52.1236 45.573 52.1974 45.554 52.2713 45.5341C55.7506 44.6324 58.7821 42.4922 60.7977 39.5145C62.8133 36.5367 63.6748 32.9257 63.2208 29.3579C62.7668 25.7901 61.0284 22.5104 58.3314 20.1331C55.6344 17.7559 52.1637 16.4442 48.5696 16.4439ZM50.6137 47.3161C49.7328 38.6516 42.6884 31.8108 33.9361 31.2601C33.5572 31.2367 33.1765 31.2247 32.7938 31.2241C32.4604 31.2241 32.1295 31.2332 31.8011 31.2516C30.8053 31.3055 29.8158 31.4428 28.843 31.662C20.8513 33.463 14.881 40.608 14.881 49.1493C14.879 51.9649 15.5406 54.7412 16.8121 57.2529C18.0837 59.7645 19.9294 61.9406 22.1992 63.6043L22.3886 63.7408C24.2944 61.5049 26.9423 60.0321 29.8461 59.5929C29.9237 59.5806 30.0033 59.5702 30.0819 59.5598C30.0904 59.4801 30.099 59.4005 30.1094 59.3218C30.9988 52.0232 37.2277 46.3531 44.7561 46.3531C46.7199 46.3508 48.6641 46.743 50.4735 47.5066L50.6383 47.5777C50.627 47.4905 50.6184 47.4033 50.6099 47.3161H50.6137ZM33.4701 24.1558C32.9924 22.7677 32.4228 21.4131 31.7651 20.1008C30.9418 18.4581 29.972 16.8932 28.8676 15.4249C27.1039 13.0856 24.9196 10.9424 22.2636 9.27893C21.777 8.98081 21.1925 8.88691 20.6372 9.01764C20.0818 9.14837 19.6004 9.49317 19.2977 9.97709C18.9949 10.461 18.8952 11.0449 19.0203 11.602C19.1454 12.159 19.4851 12.6442 19.9657 12.9519C23.6409 15.2534 26.2561 18.734 27.98 22.2269C28.4389 23.1545 28.8465 24.1067 29.201 25.079C29.7301 26.5044 30.1317 27.974 30.4011 29.4705C30.4153 29.5463 30.4276 29.6222 30.44 29.697C30.9477 29.6364 31.4629 29.5947 31.982 29.5729L32.2131 29.5653L32.2302 29.4051L32.2387 29.334C32.4308 27.6511 32.8816 26.008 33.5752 24.4629C33.5411 24.3624 33.5089 24.2572 33.4701 24.1558ZM33.9674 2.40401C30.7279 4.98886 29.1584 10.1415 30.5707 14.5273C30.9345 15.6675 31.5026 16.7319 32.2472 17.6686C32.3306 17.6022 32.4121 17.5349 32.4926 17.4667C36.9928 13.6287 37.15 6.3993 33.9674 2.40401ZM26.4512 23.4383C22.0173 20.1634 15.3916 21.0809 12.0479 24.5833C15.6862 28.0601 22.7391 28.5852 26.9836 24.6364C27.1238 24.5068 27.2608 24.3716 27.3947 24.2307C27.0974 23.9466 26.7823 23.682 26.4512 23.4383ZM48.5696 16.4439C44.9742 16.4416 41.5016 17.7526 38.8037 20.1309C36.1059 22.5091 34.3683 25.7911 33.9172 29.3606C33.9068 29.4364 33.8982 29.5122 33.8897 29.589C33.9655 29.589 34.0422 29.5975 34.118 29.6032C38.4564 29.8976 42.5736 31.6286 45.8202 34.5234C49.0668 37.4182 51.2581 41.3121 52.0487 45.591C52.1236 45.573 52.1974 45.554 52.2713 45.5341C55.7506 44.6324 58.7821 42.4922 60.7977 39.5145C62.8133 36.5367 63.6748 32.9257 63.2208 29.3579C62.7668 25.7901 61.0284 22.5104 58.3314 20.1331C55.6344 17.7559 52.1637 16.4442 48.5696 16.4439ZM50.6137 47.3161C49.7328 38.6516 42.6884 31.8108 33.9361 31.2601C33.5572 31.2367 33.1765 31.2247 32.7938 31.2241C32.4604 31.2241 32.1295 31.2332 31.8011 31.2516C30.8053 31.3055 29.8158 31.4428 28.843 31.662C20.8513 33.463 14.881 40.608 14.881 49.1493C14.879 51.9649 15.5406 54.7412 16.8121 57.2529C18.0837 59.7645 19.9294 61.9406 22.1992 63.6043C24.1567 61.3005 26.886 59.7891 29.8764 59.3531C29.9531 59.3418 30.0308 59.3304 30.1094 59.3218C30.9988 52.0232 37.2277 46.3531 44.7561 46.3531C46.7199 46.3508 48.6641 46.743 50.4735 47.5066L50.6383 47.5777C50.627 47.4905 50.6184 47.4033 50.6099 47.3161H50.6137ZM33.4701 24.1558C32.9924 22.7677 32.4228 21.4131 31.7651 20.1008C30.9418 18.4581 29.972 16.8932 28.8676 15.4249C27.1039 13.0856 24.9196 10.9424 22.2636 9.27893C21.777 8.98081 21.1925 8.88691 20.6372 9.01764C20.0818 9.14837 19.6004 9.49317 19.2977 9.97709C18.9949 10.461 18.8952 11.0449 19.0203 11.602C19.1454 12.159 19.4851 12.6442 19.9657 12.9519C23.6409 15.2534 26.2561 18.734 27.98 22.2269C28.4389 23.1545 28.8465 24.1067 29.201 25.079C29.7301 26.5044 30.1317 27.974 30.4011 29.4705C30.4153 29.5463 30.4276 29.6222 30.44 29.697C30.9477 29.6364 31.4629 29.5947 31.982 29.5729L32.2131 29.5653L32.2302 29.4051L32.2387 29.334C32.4308 27.6511 32.8816 26.008 33.5752 24.4629C33.5411 24.3624 33.5089 24.2572 33.4701 24.1558ZM33.9674 2.40401C30.7279 4.98886 29.1584 10.1415 30.5707 14.5273C30.9345 15.6675 31.5026 16.7319 32.2472 17.6686C32.3306 17.6022 32.4121 17.5349 32.4926 17.4667C36.9928 13.6287 37.15 6.3993 33.9674 2.40401ZM26.4512 23.4383C22.0173 20.1634 15.3916 21.0809 12.0479 24.5833C15.6862 28.0601 22.7391 28.5852 26.9836 24.6364C27.1238 24.5068 27.2608 24.3716 27.3947 24.2307C27.0974 23.9466 26.7823 23.682 26.4512 23.4383ZM48.5696 16.4439C44.9742 16.4416 41.5016 17.7526 38.8037 20.1309C36.1059 22.5091 34.3683 25.7911 33.9172 29.3606C33.9068 29.4364 33.8982 29.5122 33.8897 29.589C33.9655 29.589 34.0422 29.5975 34.118 29.6032C38.4564 29.8976 42.5736 31.6286 45.8202 34.5234C49.0668 37.4182 51.2581 41.3121 52.0487 45.591C52.1236 45.573 52.1974 45.554 52.2713 45.5341C55.7506 44.6324 58.7821 42.4922 60.7977 39.5145C62.8133 36.5367 63.6748 32.9257 63.2208 29.3579C62.7668 25.7901 61.0284 22.5104 58.3314 20.1331C55.6344 17.7559 52.1637 16.4442 48.5696 16.4439ZM33.4739 24.1558C32.9962 22.7677 32.4266 21.4131 31.7689 20.1008C30.9444 18.458 29.9733 16.893 28.8676 15.4249C27.1039 13.0856 24.9196 10.9424 22.2636 9.27893C21.777 8.98081 21.1925 8.88691 20.6372 9.01764C20.0818 9.14837 19.6004 9.49317 19.2977 9.97709C18.9949 10.461 18.8952 11.0449 19.0203 11.602C19.1454 12.159 19.4851 12.6442 19.9657 12.9519C23.6409 15.2534 26.2561 18.734 27.98 22.2269C28.4389 23.1545 28.8465 24.1067 29.201 25.079C29.7301 26.5044 30.1317 27.974 30.4011 29.4705C30.4153 29.5463 30.4276 29.6222 30.44 29.697C30.9477 29.6364 31.4629 29.5947 31.982 29.5729L32.2131 29.5653L32.2302 29.4051L32.2387 29.334C32.4308 27.6511 32.8816 26.008 33.5752 24.4629C33.5411 24.3624 33.5089 24.2572 33.4701 24.1558H33.4739ZM33.9712 2.40401C30.7317 4.98886 29.1622 10.1415 30.5745 14.5273C30.9383 15.6675 31.5064 16.7319 32.251 17.6686C32.3344 17.6022 32.4158 17.5349 32.4964 17.4667C36.9928 13.6287 37.15 6.3993 33.9674 2.40401H33.9712ZM26.455 23.4383C22.0211 20.1634 15.3954 21.0809 12.0517 24.5833C15.69 28.0601 22.7429 28.5852 26.9874 24.6364C27.1276 24.5068 27.2646 24.3716 27.3985 24.2307C27.1 23.9465 26.7836 23.6818 26.4512 23.4383H26.455ZM48.5696 16.4439C44.9742 16.4416 41.5016 17.7526 38.8037 20.1309C36.1059 22.5091 34.3683 25.7911 33.9172 29.3606C33.9068 29.4364 33.8982 29.5122 33.8897 29.589C33.9655 29.589 34.0422 29.5975 34.118 29.6032C38.4564 29.8976 42.5736 31.6286 45.8202 34.5234C49.0668 37.4182 51.2581 41.3121 52.0487 45.591C52.1236 45.573 52.1974 45.554 52.2713 45.5341C55.7506 44.6324 58.7821 42.4922 60.7977 39.5145C62.8133 36.5367 63.6748 32.9257 63.2208 29.3579C62.7668 25.7901 61.0284 22.5104 58.3314 20.1331C55.6344 17.7559 52.1637 16.4442 48.5696 16.4439ZM50.6137 47.3161C49.7328 38.6516 42.6884 31.8108 33.9361 31.2601C33.5572 31.2367 33.1765 31.2247 32.7938 31.2241C32.4604 31.2241 32.1295 31.2332 31.8011 31.2516C30.8053 31.3055 29.8158 31.4428 28.843 31.662C20.8513 33.463 14.881 40.608 14.881 49.1493C14.879 51.9649 15.5406 54.7412 16.8121 57.2529C18.0837 59.7645 19.9294 61.9406 22.1992 63.6043L22.3886 63.7408C24.2944 61.5049 26.9423 60.0321 29.8461 59.5929C29.9237 59.5806 30.0033 59.5702 30.0819 59.5598C30.0904 59.4801 30.099 59.4005 30.1094 59.3218C30.9988 52.0232 37.2277 46.3531 44.7561 46.3531C46.7199 46.3508 48.6641 46.743 50.4735 47.5066L50.6383 47.5777C50.627 47.4905 50.6184 47.4033 50.6099 47.3161H50.6137ZM52.1444 50.3028C50.3104 49.0487 48.1877 48.2821 45.9761 48.0752C43.7644 47.8684 41.5365 48.2281 39.5021 49.1205C37.4677 50.0129 35.6936 51.4086 34.3469 53.1764C33.0001 54.9441 32.125 57.0257 31.8039 59.2252C31.7916 59.3019 31.7812 59.3787 31.7717 59.4565H32C38.5775 59.6366 43.8724 65.0489 43.8724 71.6669C43.8725 72.3582 43.8135 73.0482 43.6962 73.7295C43.7758 73.7172 43.8553 73.7039 43.9349 73.6887C47.4189 73.094 50.7979 71.9953 53.9659 70.4271C55.3372 69.0683 56.3914 67.4229 57.0531 65.6087C57.7147 63.7946 57.9675 61.8565 57.7933 59.9332C57.619 58.0098 57.0221 56.1488 56.0452 54.4833C55.0684 52.8178 53.7356 51.389 52.1425 50.299L52.1444 50.3028ZM32.718 0.977462C14.7664 3.40401 0.924805 18.8022 0.924805 37.4326C0.924805 51.1019 8.37369 63.0299 19.4315 69.3759C19.7136 67.8738 20.2711 66.437 21.0758 65.138C18.5647 63.2989 16.5226 60.8928 15.1157 58.1152C13.7088 55.3376 12.9768 52.2671 12.979 49.1531C12.979 39.6857 19.6474 31.7473 28.5304 29.7928C28.3286 28.6876 28.0472 27.5985 27.6883 26.534C25.4917 28.3255 22.6681 29.298 19.6057 29.298C16.1901 29.298 12.9582 28.08 10.737 25.9577L9.36731 24.6487L10.6811 23.2733C12.9279 20.9198 16.4222 19.515 20.0301 19.515C21.6366 19.5099 23.2305 19.799 24.733 20.3681C23.2857 18.1633 21.3903 16.0818 18.9664 14.5633C18.0528 13.992 17.4035 13.081 17.1612 12.0306C16.9189 10.9802 17.1035 9.87652 17.6744 8.96234C18.2453 8.04815 19.1557 7.39836 20.2053 7.15589C21.255 6.91343 22.3579 7.09816 23.2715 7.66945C25.0597 8.79409 26.7025 10.135 28.1629 11.6619C28.1329 10.8417 28.1756 10.0205 28.2907 9.20784C28.7568 5.87986 30.3689 2.88363 32.718 0.977462ZM31.8182 61.1218C31.7661 61.1218 31.714 61.1218 31.6609 61.1218C29.0977 61.1209 26.622 62.0547 24.697 63.7484C22.7721 65.4422 21.5298 67.7798 21.2027 70.3238C26.3187 72.8962 31.9663 74.2319 37.6918 74.2233C39.0345 74.2236 40.3761 74.1508 41.7108 74.0053C41.7904 73.9978 41.869 73.9883 41.9486 73.9798C42.2918 72.4491 42.2895 70.8612 41.9418 69.3315C41.5942 67.8019 40.91 66.3691 39.9391 65.1375C38.9682 63.906 37.7349 62.9066 36.3293 62.2122C34.9236 61.5179 33.3809 61.146 31.8134 61.1237L31.8182 61.1218ZM33.4701 24.1548C32.9924 22.7668 32.4228 21.4121 31.7651 20.0998C30.9417 18.4575 29.972 16.8929 28.8676 15.4249C27.1039 13.0856 24.9196 10.9424 22.2636 9.27893C21.777 8.98081 21.1925 8.88691 20.6372 9.01764C20.0818 9.14837 19.6004 9.49317 19.2977 9.97709C18.9949 10.461 18.8952 11.0449 19.0203 11.602C19.1454 12.159 19.4851 12.6442 19.9657 12.9519C23.6409 15.2534 26.2561 18.734 27.98 22.2269C28.4389 23.1545 28.8465 24.1067 29.201 25.079C29.7301 26.5044 30.1317 27.974 30.4011 29.4705C30.4153 29.5463 30.4276 29.6222 30.44 29.697C30.9477 29.6364 31.4629 29.5947 31.982 29.5729L32.2131 29.5653L32.2302 29.4051L32.2387 29.334C32.4308 27.6511 32.8816 26.008 33.5752 24.4629C33.5411 24.3624 33.5089 24.2572 33.4701 24.1558V24.1548ZM33.9674 2.40307C30.7279 4.98791 29.1584 10.1406 30.5707 14.5264C30.9345 15.6665 31.5026 16.7309 32.2472 17.6676C32.3306 17.6013 32.4121 17.534 32.4926 17.4657C36.9928 13.6287 37.15 6.3993 33.9674 2.40401V2.40307ZM26.4512 23.4373C22.0173 20.1624 15.3916 21.0799 12.0479 24.5823C15.6862 28.0591 22.7391 28.5842 26.9836 24.6354C27.1238 24.5059 27.2608 24.3706 27.3947 24.2297C27.0974 23.946 26.7823 23.6817 26.4512 23.4383V23.4373ZM33.9674 2.40307C30.7279 4.98791 29.1584 10.1406 30.5707 14.5264C30.9345 15.6665 31.5026 16.7309 32.2472 17.6676C32.3306 17.6013 32.4121 17.534 32.4926 17.4657C36.9928 13.6287 37.15 6.3993 33.9674 2.40401V2.40307ZM26.4512 23.4373C22.0173 20.1624 15.3916 21.0799 12.0479 24.5823C15.6862 28.0591 22.7391 28.5842 26.9836 24.6354C27.1238 24.5059 27.2608 24.3706 27.3947 24.2297C27.0974 23.946 26.7823 23.6817 26.4512 23.4383V23.4373ZM33.9674 2.40307C30.7279 4.98791 29.1584 10.1406 30.5707 14.5264C30.9345 15.6665 31.5026 16.7309 32.2472 17.6676C32.3306 17.6013 32.4121 17.534 32.4926 17.4657C36.9928 13.6287 37.15 6.3993 33.9674 2.40401V2.40307ZM26.4512 23.4373C22.0173 20.1624 15.3916 21.0799 12.0479 24.5823C15.6862 28.0591 22.7391 28.5842 26.9836 24.6354C27.1238 24.5059 27.2608 24.3706 27.3947 24.2297C27.0974 23.946 26.7823 23.6817 26.4512 23.4383V23.4373ZM33.9674 2.40307C30.7279 4.98791 29.1584 10.1406 30.5707 14.5264C30.9345 15.6665 31.5026 16.7309 32.2472 17.6676C32.3306 17.6013 32.4121 17.534 32.4926 17.4657C36.9928 13.6287 37.15 6.3993 33.9674 2.40401V2.40307ZM33.9674 2.40307C30.7279 4.98791 29.1584 10.1406 30.5707 14.5264C30.9345 15.6665 31.5026 16.7309 32.2472 17.6676C32.3306 17.6013 32.4121 17.534 32.4926 17.4657C36.9928 13.6287 37.15 6.3993 33.9674 2.40401V2.40307ZM48.5696 16.4439C44.9742 16.4416 41.5016 17.7526 38.8037 20.1309C36.1059 22.5091 34.3683 25.7911 33.9172 29.3606L34.1464 29.3738C34.136 29.4506 34.1265 29.5264 34.118 29.6032C38.4564 29.8976 42.5736 31.6286 45.8202 34.5234C49.0668 37.4182 51.2581 41.3121 52.0487 45.591C52.1236 45.573 52.1974 45.554 52.2713 45.5341C55.7506 44.6324 58.7821 42.4922 60.7977 39.5145C62.8133 36.5367 63.6748 32.9257 63.2208 29.3579C62.7668 25.7901 61.0284 22.5104 58.3314 20.1331C55.6344 17.7559 52.1637 16.4442 48.5696 16.4439Z" fill="white"/>
<path d="M40.8311 74.4823C41.0916 74.4823 41.3502 74.4927 41.6049 74.5145C41.6731 74.5192 41.7414 74.5259 41.8086 74.5325C41.8294 74.4586 41.8493 74.3837 41.8683 74.3088C41.8967 74.1998 41.9242 74.0889 41.9488 73.978C42.292 72.4474 42.2897 70.8594 41.942 69.3298C41.5944 67.8001 40.9102 66.3674 39.9393 65.1358C38.9683 63.9042 37.7351 62.9049 36.3295 62.2105C34.9238 61.5162 33.381 61.1443 31.8136 61.122C31.7615 61.122 31.7094 61.122 31.6564 61.122C29.094 61.1222 26.6194 62.0565 24.6954 63.7502C22.7715 65.4438 21.5299 67.7807 21.2029 70.324C21.1462 70.7713 21.1178 71.2218 21.1177 71.6728C21.1177 74.4165 22.186 77.0522 24.0959 79.0208C26.0058 80.9894 28.607 82.1358 31.3476 82.2169C31.4253 82.2169 31.5029 82.2169 31.5815 82.2216C31.9744 80.0523 33.1153 78.0896 34.8054 76.6754C36.4956 75.2612 38.6279 74.4851 40.8311 74.4823Z" fill="white"/>
<path d="M43.2158 76.5239C42.055 76.1484 40.822 76.0529 39.6173 76.245C38.4127 76.4372 37.2705 76.9116 36.2839 77.6295C35.2973 78.3475 34.4943 79.2887 33.9404 80.3763C33.3865 81.464 33.0974 82.6672 33.0967 83.888C33.0967 83.9676 33.0967 84.0472 33.1014 84.1268C33.1454 85.5435 33.5773 86.9209 34.35 88.1088C35.1228 89.2966 36.2066 90.2493 37.4834 90.8629C38.7602 91.4765 40.1808 91.7275 41.5904 91.5885C42.9999 91.4494 44.3442 90.9257 45.4767 90.0745C46.6092 89.2232 47.4863 88.0771 48.0124 86.7611C48.5385 85.4451 48.6933 84.0099 48.4601 82.6118C48.2268 81.2138 47.6144 79.9068 46.6896 78.8332C45.7648 77.7597 44.5632 76.9608 43.2158 76.5239Z" fill="white"/>
<path d="M22.3853 63.741C24.2911 61.5051 26.939 60.0323 29.8427 59.5931C29.9204 59.5808 30 59.5704 30.0786 59.5599C30.0871 59.4803 30.0956 59.4007 30.106 59.322C30.9955 52.0234 37.2244 46.3532 44.7528 46.3532C46.7165 46.3509 48.6608 46.7432 50.4702 47.5068L50.635 47.5779C50.6274 47.4907 50.6189 47.4035 50.6104 47.3163C49.7295 38.6518 42.685 31.811 33.9328 31.2603C33.5539 31.2369 33.1731 31.2249 32.7904 31.2242C32.457 31.2242 32.1261 31.2334 31.7978 31.2517C30.802 31.3057 29.8125 31.443 28.8396 31.6622C20.848 33.4631 14.8777 40.6082 14.8777 49.1495C14.8756 51.965 15.5372 54.7414 16.8088 57.253C18.0804 59.7647 19.926 61.9407 22.1959 63.6045L22.3853 63.741Z" fill="white"/>
<path d="M48.5698 16.4439C44.9744 16.4415 41.5018 17.7525 38.8039 20.1308C36.1061 22.5091 34.3685 25.791 33.9174 29.3605C33.9069 29.4363 33.8984 29.5122 33.8899 29.5889C33.9657 29.5889 34.0424 29.5975 34.1182 29.6031C38.4566 29.8975 42.5737 31.6286 45.8203 34.5234C49.0669 37.4182 51.2583 41.312 52.0489 45.5909C52.1237 45.5729 52.1976 45.5539 52.2715 45.534C55.7508 44.6324 58.7822 42.4922 60.7978 39.5144C62.8135 36.5366 63.675 32.9256 63.221 29.3578C62.767 25.7901 61.0286 22.5103 58.3316 20.1331C55.6346 17.7558 52.1639 16.4442 48.5698 16.4439Z" fill="white"/>
<path d="M19.9682 12.9519C23.6434 15.2534 26.2586 18.734 27.9825 22.2269C28.4414 23.1545 28.849 24.1067 29.2035 25.079C29.7316 26.5045 30.1323 27.9741 30.4008 29.4705C30.415 29.5463 30.4273 29.6222 30.4396 29.697C30.9473 29.6364 31.4626 29.5947 31.9817 29.5729L32.2128 29.5653L32.2299 29.4051L32.2384 29.334C32.4305 27.6511 32.8813 26.008 33.5749 24.4629C33.5408 24.3605 33.5058 24.2572 33.4698 24.1539C32.992 22.7658 32.4224 21.4112 31.7648 20.0989C30.9413 18.4569 29.9716 16.8926 28.8672 15.425C27.1035 13.0856 24.9193 10.9425 22.2633 9.27895C21.7767 8.98083 21.1922 8.88693 20.6368 9.01766C20.0814 9.14839 19.6001 9.49318 19.2973 9.9771C18.9946 10.461 18.8949 11.045 19.02 11.602C19.1451 12.159 19.4848 12.6442 19.9653 12.9519H19.9682Z" fill="white"/>
<path d="M26.9834 24.6365C27.1236 24.507 27.2606 24.3718 27.3945 24.2309C27.096 23.9467 26.7796 23.682 26.4473 23.4384C22.0134 20.1636 15.3876 21.0811 12.0439 24.5835C15.686 28.0603 22.7389 28.5854 26.9834 24.6365Z" fill="white"/>
<path d="M32.2475 17.6685C32.3308 17.6021 32.4123 17.5348 32.4928 17.4666C36.993 13.6286 37.1503 6.39921 33.9676 2.40393C30.7282 4.98878 29.1586 10.1414 30.5709 14.5272C30.9348 15.6674 31.5029 16.7318 32.2475 17.6685Z" fill="white"/>
</g>
<path d="M139.426 69.2665C136.987 71.3634 134.257 72.9726 131.233 74.0942C128.21 75.2158 125.077 75.7766 121.834 75.7766C119.347 75.7766 116.945 75.4474 114.629 74.7891C112.337 74.1552 110.179 73.253 108.155 72.0827C106.156 70.8879 104.327 69.4616 102.669 67.8035C101.011 66.1455 99.5848 64.3169 98.3901 62.3175C97.2197 60.2938 96.3054 58.1359 95.647 55.844C95.0131 53.5276 94.6961 51.126 94.6961 48.6389C94.6961 46.1519 95.0131 43.7503 95.647 41.4339C96.3054 39.1176 97.2197 36.9598 98.3901 34.9604C99.5848 32.9367 101.011 31.0958 102.669 29.4378C104.327 27.7798 106.156 26.3656 108.155 25.1952C110.179 24.0005 112.337 23.0861 114.629 22.4522C116.945 21.7939 119.347 21.4647 121.834 21.4647C125.077 21.4647 128.21 22.0255 131.233 23.1471C134.257 24.2443 136.987 25.8536 139.426 27.9748L133.867 37.1182C132.33 35.4602 130.514 34.1924 128.417 33.3146C126.32 32.4124 124.126 31.9614 121.834 31.9614C119.517 31.9614 117.347 32.4002 115.324 33.278C113.3 34.1558 111.532 35.3505 110.02 36.8622C108.509 38.3496 107.314 40.1173 106.436 42.1654C105.558 44.1892 105.12 46.347 105.12 48.6389C105.12 50.9309 105.558 53.0887 106.436 55.1125C107.314 57.1118 108.509 58.8674 110.02 60.3791C111.532 61.8908 113.3 63.0855 115.324 63.9633C117.347 64.8411 119.517 65.28 121.834 65.28C124.126 65.28 126.32 64.8411 128.417 63.9633C130.514 63.0612 132.33 61.7811 133.867 60.1231L139.426 69.2665ZM158.663 65.0605C159.054 65.1824 159.444 65.2678 159.834 65.3165C160.224 65.3409 160.614 65.3531 161.004 65.3531C161.979 65.3531 162.918 65.219 163.82 64.9508C164.722 64.6826 165.564 64.3047 166.344 63.817C167.149 63.305 167.856 62.6954 168.465 61.9883C169.099 61.2569 169.611 60.4522 170.001 59.5745L177.316 66.9258C176.389 68.2424 175.317 69.425 174.098 70.4734C172.903 71.5219 171.598 72.4118 170.184 73.1433C168.794 73.8748 167.319 74.4234 165.759 74.7891C164.223 75.1792 162.638 75.3743 161.004 75.3743C158.249 75.3743 155.652 74.8623 153.214 73.8382C150.8 72.8141 148.679 71.3878 146.85 69.5591C145.046 67.7304 143.619 65.5604 142.571 63.049C141.523 60.5132 140.998 57.7336 140.998 54.7102C140.998 51.6136 141.523 48.7852 142.571 46.2251C143.619 43.6649 145.046 41.4827 146.85 39.6784C148.679 37.8741 150.8 36.4721 153.214 35.4724C155.652 34.4727 158.249 33.9729 161.004 33.9729C162.638 33.9729 164.235 34.168 165.795 34.5581C167.356 34.9482 168.831 35.509 170.221 36.2405C171.635 36.9719 172.952 37.8741 174.171 38.9469C175.39 39.9954 176.463 41.1779 177.389 42.4946L158.663 65.0605ZM163.784 44.4695C163.321 44.2989 162.857 44.1892 162.394 44.1404C161.955 44.0916 161.492 44.0672 161.004 44.0672C159.639 44.0672 158.346 44.3233 157.127 44.8353C155.933 45.3229 154.884 46.03 153.982 46.9566C153.104 47.8831 152.409 49.0047 151.897 50.3213C151.385 51.6136 151.129 53.0766 151.129 54.7102C151.129 55.0759 151.141 55.4904 151.166 55.9537C151.215 56.4169 151.276 56.8924 151.349 57.3801C151.446 57.8433 151.556 58.2944 151.678 58.7333C151.8 59.1722 151.958 59.5623 152.153 59.9036L163.784 44.4695ZM192.494 74.6428H182.436V19.892H192.494V74.6428ZM210.196 74.6428H200.138V19.892H210.196V74.6428ZM255.767 74.6428H253.353L249.476 69.2665C248.525 70.1199 247.513 70.9245 246.44 71.6804C245.392 72.4118 244.282 73.058 243.112 73.6188C241.942 74.1552 240.735 74.5819 239.491 74.8988C238.272 75.2158 237.029 75.3743 235.761 75.3743C233.006 75.3743 230.409 74.911 227.971 73.9845C225.557 73.058 223.435 71.7169 221.607 69.9614C219.802 68.1815 218.376 66.0114 217.328 63.4513C216.279 60.8911 215.755 57.9774 215.755 54.7102C215.755 51.6624 216.279 48.8706 217.328 46.3348C218.376 43.7747 219.802 41.5802 221.607 39.7515C223.435 37.9229 225.557 36.5087 227.971 35.509C230.409 34.4849 233.006 33.9729 235.761 33.9729C237.029 33.9729 238.284 34.1314 239.528 34.4484C240.771 34.7653 241.978 35.2042 243.149 35.765C244.319 36.3258 245.428 36.9841 246.477 37.74C247.55 38.4959 248.549 39.3127 249.476 40.1904L253.353 35.5456H255.767V74.6428ZM245.709 54.7102C245.709 53.3448 245.441 52.0281 244.904 50.7602C244.392 49.468 243.685 48.3342 242.783 47.3589C241.881 46.3592 240.82 45.5668 239.601 44.9816C238.406 44.372 237.126 44.0672 235.761 44.0672C234.395 44.0672 233.103 44.2989 231.884 44.7621C230.689 45.2254 229.641 45.9081 228.739 46.8103C227.861 47.7124 227.166 48.834 226.654 50.175C226.142 51.4917 225.886 53.0034 225.886 54.7102C225.886 56.4169 226.142 57.9408 226.654 59.2819C227.166 60.5985 227.861 61.7079 228.739 62.6101C229.641 63.5122 230.689 64.1949 231.884 64.6582C233.103 65.1215 234.395 65.3531 235.761 65.3531C237.126 65.3531 238.406 65.0605 239.601 64.4753C240.82 63.8658 241.881 63.0734 242.783 62.0981C243.685 61.0984 244.392 59.9646 244.904 58.6967C245.441 57.4044 245.709 56.0756 245.709 54.7102ZM273.395 74.6428H263.41V35.4724H265.824L269.116 40.1173C270.725 38.6543 272.554 37.5327 274.602 36.7525C276.65 35.9479 278.771 35.5456 280.966 35.5456H289.78V45.4936H280.966C279.917 45.4936 278.93 45.6887 278.003 46.0788C277.077 46.4689 276.272 47.0053 275.589 47.688C274.907 48.3707 274.37 49.1754 273.98 50.1019C273.59 51.0284 273.395 52.0159 273.395 53.0644V74.6428ZM327.926 43.2626L320.612 50.6139C320.246 49.5899 319.746 48.6755 319.112 47.8709C318.478 47.0419 317.759 46.347 316.954 45.7862C316.174 45.2254 315.321 44.7987 314.394 44.5061C313.468 44.2135 312.517 44.0672 311.541 44.0672C310.176 44.0672 308.884 44.3476 307.665 44.9084C306.47 45.4692 305.421 46.2617 304.519 47.2857C303.641 48.2854 302.947 49.4801 302.435 50.8699C301.922 52.2597 301.666 53.7958 301.666 55.4782C301.666 56.8436 301.922 58.1237 302.435 59.3185C302.947 60.5132 303.641 61.5616 304.519 62.4638C305.421 63.3659 306.47 64.073 307.665 64.5851C308.884 65.0971 310.176 65.3531 311.541 65.3531C312.517 65.3531 313.455 65.219 314.358 64.9508C315.26 64.6826 316.101 64.3047 316.881 63.817C317.686 63.305 318.393 62.6954 319.002 61.9883C319.636 61.2569 320.148 60.4522 320.538 59.5745L327.853 66.9258C326.927 68.2424 325.854 69.425 324.635 70.4734C323.44 71.5219 322.136 72.4118 320.721 73.1433C319.332 73.8748 317.856 74.4234 316.296 74.7891C314.76 75.1792 313.175 75.3743 311.541 75.3743C308.786 75.3743 306.189 74.8623 303.751 73.8382C301.337 72.7898 299.216 71.3634 297.387 69.5591C295.583 67.7548 294.157 65.6457 293.108 63.2318C292.06 60.818 291.536 58.2334 291.536 55.4782C291.536 52.4792 292.06 49.6752 293.108 47.0663C294.157 44.4574 295.583 42.1898 297.387 40.2636C299.216 38.313 301.337 36.7769 303.751 35.6553C306.189 34.5337 308.786 33.9729 311.541 33.9729C313.175 33.9729 314.772 34.1802 316.333 34.5947C317.917 35.0092 319.417 35.6187 320.831 36.4233C322.27 37.2036 323.586 38.1667 324.781 39.3127C326 40.4586 327.049 41.7753 327.926 43.2626ZM370.096 54.7102C370.096 57.6361 369.572 60.3669 368.523 62.9027C367.475 65.4141 366.048 67.5963 364.244 69.4494C362.44 71.278 360.318 72.7288 357.88 73.8016C355.466 74.8501 352.87 75.3743 350.09 75.3743C347.335 75.3743 344.738 74.8501 342.3 73.8016C339.886 72.7288 337.765 71.278 335.936 69.4494C334.132 67.5963 332.705 65.4141 331.657 62.9027C330.608 60.3669 330.084 57.6361 330.084 54.7102C330.084 51.7355 330.608 48.9803 331.657 46.4445C332.705 43.9088 334.132 41.7265 335.936 39.8978C337.765 38.0448 339.886 36.594 342.3 35.5456C344.738 34.4971 347.335 33.9729 350.09 33.9729C352.87 33.9729 355.466 34.4727 357.88 35.4724C360.318 36.4477 362.44 37.8497 364.244 39.6784C366.048 41.4827 367.475 43.6649 368.523 46.2251C369.572 48.7609 370.096 51.5892 370.096 54.7102ZM360.038 54.7102C360.038 53.1009 359.77 51.6502 359.233 50.3579C358.721 49.0413 358.014 47.9197 357.112 46.9931C356.21 46.0422 355.149 45.3229 353.93 44.8353C352.736 44.3233 351.455 44.0672 350.09 44.0672C348.725 44.0672 347.432 44.3233 346.213 44.8353C345.018 45.3229 343.97 46.0422 343.068 46.9931C342.19 47.9197 341.495 49.0413 340.983 50.3579C340.471 51.6502 340.215 53.1009 340.215 54.7102C340.215 56.2219 340.471 57.6239 340.983 58.9161C341.495 60.2084 342.19 61.33 343.068 62.2809C343.97 63.2318 345.018 63.9877 346.213 64.5485C347.432 65.0849 348.725 65.3531 350.09 65.3531C351.455 65.3531 352.736 65.0971 353.93 64.5851C355.149 64.073 356.21 63.3538 357.112 62.4272C358.014 61.5007 358.721 60.3791 359.233 59.0624C359.77 57.7458 360.038 56.295 360.038 54.7102ZM387.395 24.8295C387.395 25.756 387.212 26.6216 386.847 27.4262C386.505 28.2308 386.03 28.9379 385.42 29.5475C384.811 30.1327 384.091 30.6081 383.262 30.9739C382.458 31.3152 381.592 31.4859 380.666 31.4859C379.739 31.4859 378.861 31.3152 378.032 30.9739C377.228 30.6081 376.521 30.1327 375.911 29.5475C375.326 28.9379 374.85 28.2308 374.485 27.4262C374.143 26.6216 373.973 25.756 373.973 24.8295C373.973 23.9273 374.143 23.074 374.485 22.2693C374.85 21.4403 375.326 20.7332 375.911 20.1481C376.521 19.5385 377.228 19.063 378.032 18.7217C378.861 18.356 379.739 18.1731 380.666 18.1731C381.592 18.1731 382.458 18.356 383.262 18.7217C384.091 19.063 384.811 19.5385 385.42 20.1481C386.03 20.7332 386.505 21.4403 386.847 22.2693C387.212 23.074 387.395 23.9273 387.395 24.8295ZM385.676 74.6428H375.618V35.4724H385.676V74.6428ZM403.305 74.6428H393.32V35.4724H395.734L399.026 39.2761C400.635 37.8131 402.451 36.6916 404.475 35.9113C406.523 35.1067 408.657 34.7044 410.875 34.7044C413.265 34.7044 415.52 35.1676 417.642 36.0942C419.763 36.9963 421.616 38.252 423.201 39.8613C424.786 41.4461 426.029 43.3114 426.931 45.457C427.858 47.5783 428.321 49.8459 428.321 52.2597V74.6428H418.336V52.2597C418.336 51.2357 418.141 50.2726 417.751 49.3704C417.361 48.4439 416.825 47.6393 416.142 46.9566C415.459 46.2739 414.667 45.7374 413.765 45.3473C412.863 44.9572 411.9 44.7621 410.875 44.7621C409.827 44.7621 408.84 44.9572 407.913 45.3473C406.986 45.7374 406.182 46.2739 405.499 46.9566C404.816 47.6393 404.28 48.4439 403.89 49.3704C403.5 50.2726 403.305 51.2357 403.305 52.2597V74.6428Z" fill="white"/>
<defs>
<clipPath id="clip0_1331_8711">
<rect width="73.5274" height="90.9853" fill="white" transform="translate(0.928467 0.642883)"/>
</clipPath>
</defs>
</svg>
