<svg width="24" height="24" viewBox="0 0 24 24" fill="none" xmlns="http://www.w3.org/2000/svg">
<g id="icon/general/24x24/fill/email-fill">
<path id="&#240;&#159;&#142;&#168; Icon &#208;&#161;olor" fill-rule="evenodd" clip-rule="evenodd" d="M5.00635 4H19.0063C20.6603 4 22.0063 5.346 22.0063 7V17C22.0063 18.654 20.6603 20 19.0063 20H5.00635C3.35235 20 2.00635 18.654 2.00635 17V7C2.00635 5.346 3.35235 4 5.00635 4ZM12.5013 10.468L19.0063 6H5.00635L11.5113 10.468C11.8183 10.643 12.1943 10.643 12.5013 10.468Z" fill="#780543"/>
<mask id="mask0_1296_8195" style="mask-type:alpha" maskUnits="userSpaceOnUse" x="2" y="4" width="21" height="16">
<path id="&#240;&#159;&#142;&#168; Icon &#208;&#161;olor_2" fill-rule="evenodd" clip-rule="evenodd" d="M5.00635 4H19.0063C20.6603 4 22.0063 5.346 22.0063 7V17C22.0063 18.654 20.6603 20 19.0063 20H5.00635C3.35235 20 2.00635 18.654 2.00635 17V7C2.00635 5.346 3.35235 4 5.00635 4ZM12.5013 10.468L19.0063 6H5.00635L11.5113 10.468C11.8183 10.643 12.1943 10.643 12.5013 10.468Z" fill="white"/>
</mask>
<g mask="url(#mask0_1296_8195)">
</g>
</g>
</svg>
