<svg width="22" height="40" viewBox="0 0 22 40" fill="none" xmlns="http://www.w3.org/2000/svg">
<path d="M1.54232 21.304H5.92696V39.3548C5.92696 39.7112 6.21573 40 6.57212 40H14.0064C14.3628 40 14.6516 39.7112 14.6516 39.3548V21.389H19.6921C20.0199 21.389 20.2956 21.1431 20.333 20.8175L21.0986 14.1721C21.1196 13.9893 21.0617 13.8062 20.9393 13.669C20.8169 13.5317 20.6417 13.4532 20.4578 13.4532H14.6519V9.28748C14.6519 8.03174 15.328 7.39497 16.6617 7.39497C16.8517 7.39497 20.4578 7.39497 20.4578 7.39497C20.8142 7.39497 21.103 7.10606 21.103 6.74981V0.649935C21.103 0.293548 20.8142 0.00477419 20.4578 0.00477419H15.2262C15.1893 0.00296774 15.1073 0 14.9866 0C14.0788 0 10.9236 0.178193 8.43122 2.4711C5.66967 5.012 6.05354 8.05432 6.14528 8.58181V13.453H1.54232C1.18593 13.453 0.897156 13.7418 0.897156 14.0982V20.6587C0.897156 21.0151 1.18593 21.304 1.54232 21.304Z" fill="black"/>
</svg>
