<svg width="24" height="24" viewBox="0 0 24 24" fill="none" xmlns="http://www.w3.org/2000/svg">
<g id="icon/general/24x24/outline/log-out">
<path id="&#240;&#159;&#142;&#168; Icon &#208;&#161;olor" fill-rule="evenodd" clip-rule="evenodd" d="M16 5C16 5.55 16.45 6 17 6H18V18H17C16.45 18 16 18.45 16 19C16 19.55 16.45 20 17 20H19C19.55 20 20 19.55 20 19V5C20 4.45 19.55 4 19 4H17C16.45 4 16 4.45 16 5ZM5.9961 7.4248L3.1821 11.4248C2.9321 11.7788 2.9401 12.2538 3.2001 12.5998L6.2001 16.5998C6.3961 16.8618 6.6971 16.9998 7.0011 16.9998C7.2091 16.9998 7.4201 16.9348 7.6001 16.7998C8.0421 16.4688 8.1311 15.8418 7.8001 15.4008L5.9991 12.9998H6.0001H14.0001C14.5521 12.9998 15.0001 12.5528 15.0001 11.9998C15.0001 11.4468 14.5521 10.9998 14.0001 10.9998H6.0001C5.98357 10.9998 5.96825 11.0044 5.95281 11.0089C5.94023 11.0127 5.92757 11.0165 5.9141 11.0178L7.6321 8.5748C7.9501 8.1238 7.8411 7.4998 7.3891 7.1818C6.9381 6.8628 6.3141 6.9728 5.9961 7.4248Z" fill="#780543"/>
<mask id="mask0_2191_8890" style="mask-type:alpha" maskUnits="userSpaceOnUse" x="2" y="4" width="18" height="16">
<path id="&#240;&#159;&#142;&#168; Icon &#208;&#161;olor_2" fill-rule="evenodd" clip-rule="evenodd" d="M16 5C16 5.55 16.45 6 17 6H18V18H17C16.45 18 16 18.45 16 19C16 19.55 16.45 20 17 20H19C19.55 20 20 19.55 20 19V5C20 4.45 19.55 4 19 4H17C16.45 4 16 4.45 16 5ZM5.9961 7.4248L3.1821 11.4248C2.9321 11.7788 2.9401 12.2538 3.2001 12.5998L6.2001 16.5998C6.3961 16.8618 6.6971 16.9998 7.0011 16.9998C7.2091 16.9998 7.4201 16.9348 7.6001 16.7998C8.0421 16.4688 8.1311 15.8418 7.8001 15.4008L5.9991 12.9998H6.0001H14.0001C14.5521 12.9998 15.0001 12.5528 15.0001 11.9998C15.0001 11.4468 14.5521 10.9998 14.0001 10.9998H6.0001C5.98357 10.9998 5.96825 11.0044 5.95281 11.0089C5.94023 11.0127 5.92757 11.0165 5.9141 11.0178L7.6321 8.5748C7.9501 8.1238 7.8411 7.4998 7.3891 7.1818C6.9381 6.8628 6.3141 6.9728 5.9961 7.4248Z" fill="white"/>
</mask>
<g mask="url(#mask0_2191_8890)">
</g>
</g>
</svg>
