<svg width="24" height="25" viewBox="0 0 24 25" fill="none" xmlns="http://www.w3.org/2000/svg">
<g id="icon/general/24x24/outline/arrow-ios-down">
<path id="&#240;&#159;&#142;&#168; Icon &#208;&#161;olor" d="M11.9999 16.8906C11.7719 16.8906 11.5449 16.8136 11.3599 16.6586L5.35991 11.6586C4.93591 11.3056 4.87791 10.6746 5.23191 10.2506C5.58491 9.82661 6.21491 9.76961 6.63991 10.1226L12.0109 14.5986L17.3729 10.2836C17.8029 9.93761 18.4329 10.0056 18.7789 10.4356C19.1249 10.8656 19.0569 11.4946 18.6269 11.8416L12.6269 16.6696C12.4439 16.8166 12.2219 16.8906 11.9999 16.8906Z" fill="#EDEDED"/>
<mask id="mask0_2141_8869" style="mask-type:alpha" maskUnits="userSpaceOnUse" x="5" y="9" width="14" height="8">
<path id="&#240;&#159;&#142;&#168; Icon &#208;&#161;olor_2" d="M11.9999 16.8906C11.7719 16.8906 11.5449 16.8136 11.3599 16.6586L5.35991 11.6586C4.93591 11.3056 4.87791 10.6746 5.23191 10.2506C5.58491 9.82661 6.21491 9.76961 6.63991 10.1226L12.0109 14.5986L17.3729 10.2836C17.8029 9.93761 18.4329 10.0056 18.7789 10.4356C19.1249 10.8656 19.0569 11.4946 18.6269 11.8416L12.6269 16.6696C12.4439 16.8166 12.2219 16.8906 11.9999 16.8906Z" fill="white"/>
</mask>
<g mask="url(#mask0_2141_8869)">
</g>
</g>
</svg>
