<svg width="40" height="40" viewBox="0 0 40 40" fill="none" xmlns="http://www.w3.org/2000/svg">
<g clipPath="url(#clip0_1001_152)">
<rect width="40" height="40" rx="10.4127" fill="black"/>
<path d="M26.2074 5.36206H13.7915C11.5432 5.36228 9.38699 6.25559 7.79724 7.84549C6.20749 9.43539 5.31439 11.5917 5.31439 13.84V26.2551C5.31428 27.3684 5.53347 28.4708 5.95944 29.4994C6.38541 30.528 7.00981 31.4626 7.797 32.2498C8.58418 33.0371 9.51873 33.6616 10.5473 34.0877C11.5758 34.5137 12.6782 34.733 13.7915 34.733H26.2074C28.4559 34.733 30.6123 33.8398 32.2022 32.2499C33.7921 30.66 34.6853 28.5036 34.6853 26.2551V13.84C34.6853 11.5915 33.7921 9.43512 32.2022 7.8452C30.6123 6.25527 28.4559 5.36206 26.2074 5.36206ZM31.9805 26.4741C31.9805 27.2131 31.8349 27.9449 31.5521 28.6277C31.2692 29.3105 30.8547 29.9308 30.3321 30.4534C29.8095 30.9759 29.189 31.3904 28.5062 31.6731C27.8234 31.9558 27.0916 32.1013 26.3526 32.1012H13.6463C12.9074 32.1012 12.1756 31.9557 11.4929 31.6729C10.8102 31.3901 10.1899 30.9756 9.66737 30.4531C9.14484 29.9305 8.73036 29.3102 8.44757 28.6275C8.16478 27.9448 8.01923 27.2131 8.01923 26.4741V13.767C8.01923 12.2746 8.61208 10.8433 9.66737 9.78805C10.7227 8.73277 12.1539 8.13992 13.6463 8.13992H26.3526C27.0916 8.13981 27.8234 8.28528 28.5062 8.56802C29.189 8.85076 29.8095 9.26523 30.3321 9.78777C30.8547 10.3103 31.2692 10.9307 31.5521 11.6134C31.8349 12.2962 31.9805 13.028 31.9805 13.767V26.4741Z" fill="white"/>
<path d="M20.0003 12.4995C18.4929 12.4993 17.0193 12.9462 15.7659 13.7836C14.5124 14.6209 13.5354 15.8112 12.9584 17.2038C12.3815 18.5964 12.2304 20.1289 12.5244 21.6074C12.8184 23.0858 13.5442 24.4439 14.61 25.5099C15.6759 26.5758 17.0339 27.3018 18.5123 27.5959C19.9908 27.8901 21.5233 27.7392 22.9159 27.1624C24.3086 26.5856 25.499 25.6087 26.3365 24.3553C27.174 23.102 27.621 21.6284 27.621 20.121C27.6211 19.1202 27.4241 18.1291 27.0411 17.2044C26.6582 16.2798 26.0969 15.4396 25.3892 14.7318C24.6816 14.0241 23.8415 13.4627 22.9168 13.0797C21.9922 12.6967 21.0012 12.4995 20.0003 12.4995ZM20.0003 25.0606C19.0232 25.0604 18.0681 24.7705 17.2557 24.2275C16.4434 23.6845 15.8103 22.9128 15.4365 22.01C15.0627 21.1072 14.965 20.1138 15.1558 19.1555C15.3466 18.1972 15.8173 17.317 16.5083 16.6262C17.1994 15.9354 18.0798 15.465 19.0381 15.2745C19.9965 15.084 20.9899 15.182 21.8925 15.5561C22.7952 15.9302 23.5667 16.5636 24.1094 17.3761C24.6521 18.1886 24.9417 19.1439 24.9416 20.121C24.9416 20.7698 24.8138 21.4123 24.5654 22.0117C24.3171 22.6111 23.9531 23.1557 23.4942 23.6144C23.0354 24.0731 22.4906 24.4369 21.8911 24.685C21.2917 24.9332 20.6492 25.0608 20.0003 25.0606Z" fill="white"/>
<path d="M27.8738 13.9851C28.8543 13.9851 29.6492 13.1903 29.6492 12.2098C29.6492 11.2293 28.8543 10.4344 27.8738 10.4344C26.8934 10.4344 26.0985 11.2293 26.0985 12.2098C26.0985 13.1903 26.8934 13.9851 27.8738 13.9851Z" fill="white"/>
</g>
<defs>
<clipPath id="clip0_1001_152">
<rect width="40" height="40" fill="white"/>
</clipPath>
</defs>
</svg>
