<svg width="139" height="30" viewBox="0 0 139 30" fill="none" xmlns="http://www.w3.org/2000/svg">
<g clip-path="url(#clip0_3363_6480)">
<path d="M15.4006 5.10782C14.5334 5.10755 13.6825 5.34366 12.9393 5.7908C12.1961 6.23794 11.5887 6.87923 11.1822 7.64579L11.2128 7.73342L11.1148 7.95158C10.9243 8.37584 10.7978 8.82607 10.7394 9.28752C10.736 9.31234 10.733 9.33685 10.7302 9.36167C12.1327 9.45682 13.4636 10.0164 14.5131 10.9522C15.5625 11.8879 16.2709 13.1467 16.5265 14.5299C16.5507 14.524 16.5746 14.5179 16.5984 14.5115C17.7233 14.22 18.7033 13.528 19.3548 12.5653C20.0064 11.6026 20.2848 10.4352 20.1379 9.28177C19.991 8.12837 19.4288 7.06815 18.5567 6.29978C17.6847 5.53141 16.5625 5.10762 15.4006 5.10782ZM10.6803 0.569301C9.63313 1.40487 9.12577 3.07051 9.5823 4.48826C9.69993 4.85683 9.88357 5.2009 10.1243 5.50369C10.1512 5.48224 10.1775 5.46049 10.2036 5.43843C11.6583 4.19779 11.7091 1.86081 10.6803 0.569301ZM8.25066 7.3688C6.81737 6.31016 4.67553 6.60676 3.59467 7.73894C4.77076 8.86284 7.05069 9.03259 8.42274 7.7561C8.46806 7.71422 8.51236 7.67051 8.55563 7.62495C8.45955 7.53314 8.35768 7.44758 8.25066 7.3688ZM10.6803 0.569301C9.63313 1.40487 9.12577 3.07051 9.5823 4.48826C9.69993 4.85683 9.88357 5.2009 10.1243 5.50369C10.1512 5.48224 10.1775 5.46049 10.2036 5.43843C11.6583 4.19779 11.7091 1.86081 10.6803 0.569301ZM8.25066 7.3688C6.81737 6.31016 4.67553 6.60676 3.59467 7.73894C4.77076 8.86284 7.05069 9.03259 8.42274 7.7561C8.46806 7.71422 8.51236 7.67051 8.55563 7.62495C8.45955 7.53314 8.35768 7.44758 8.25066 7.3688ZM10.6803 0.569301C9.63313 1.40487 9.12577 3.07051 9.5823 4.48826C9.69993 4.85683 9.88357 5.2009 10.1243 5.50369C10.1512 5.48224 10.1775 5.46049 10.2036 5.43843C11.6583 4.19779 11.7091 1.86081 10.6803 0.569301ZM8.25066 7.3688C6.81737 6.31016 4.67553 6.60676 3.59467 7.73894C4.77076 8.86284 7.05069 9.03259 8.42274 7.7561C8.46806 7.71422 8.51236 7.67051 8.55563 7.62495C8.45955 7.53314 8.35768 7.44758 8.25066 7.3688ZM10.6803 0.569301C9.63313 1.40487 9.12577 3.07051 9.5823 4.48826C9.69993 4.85683 9.88357 5.2009 10.1243 5.50369C10.1512 5.48224 10.1775 5.46049 10.2036 5.43843C11.6583 4.19779 11.7091 1.86081 10.6803 0.569301ZM8.25066 7.3688C6.81737 6.31016 4.67553 6.60676 3.59467 7.73894C4.77076 8.86284 7.05069 9.03259 8.42274 7.7561C8.46806 7.71422 8.51236 7.67051 8.55563 7.62495C8.45955 7.53314 8.35768 7.44758 8.25066 7.3688ZM10.6803 0.569301C9.63313 1.40487 9.12577 3.07051 9.5823 4.48826C9.69993 4.85683 9.88357 5.2009 10.1243 5.50369C10.1512 5.48224 10.1775 5.46049 10.2036 5.43843C11.6583 4.19779 11.7091 1.86081 10.6803 0.569301ZM15.4006 5.10782C14.2384 5.10706 13.1158 5.53086 12.2437 6.29966C11.3716 7.06845 10.8099 8.12938 10.6641 9.28323C10.6607 9.30775 10.658 9.33226 10.6552 9.35708C10.6797 9.35708 10.7045 9.35983 10.729 9.36167C12.1314 9.45682 13.4623 10.0164 14.5118 10.9522C15.5613 11.8879 16.2697 13.1467 16.5253 14.5299C16.5495 14.524 16.5733 14.5179 16.5972 14.5115C17.7219 14.22 18.7019 13.5282 19.3534 12.5656C20.005 11.603 20.2835 10.4357 20.1367 9.28237C19.99 8.12906 19.428 7.06886 18.5562 6.30039C17.6844 5.53192 16.5624 5.10792 15.4006 5.10782ZM10.5208 7.60075C10.3664 7.15205 10.1822 6.71414 9.96964 6.28993C9.7031 5.75888 9.3892 5.253 9.03177 4.77843C8.46163 4.02221 7.75555 3.32942 6.89698 2.79168C6.73969 2.69531 6.55074 2.66495 6.37121 2.70721C6.19168 2.74947 6.03607 2.86093 5.9382 3.01736C5.84034 3.17379 5.80812 3.36255 5.84855 3.54262C5.88899 3.72269 5.99881 3.87951 6.15415 3.97901C7.34218 4.72296 8.18759 5.8481 8.74486 6.97721C8.89318 7.27708 9.02494 7.58486 9.13955 7.89919C9.31058 8.35996 9.4404 8.83503 9.52749 9.31878C9.53209 9.34329 9.53607 9.3678 9.54005 9.392C9.70417 9.37239 9.87074 9.35892 10.0385 9.35187L10.1132 9.34942L10.1188 9.29764L10.1215 9.27465C10.1836 8.73064 10.3293 8.19949 10.5536 7.70002C10.5425 7.66754 10.5321 7.63353 10.5196 7.60075H10.5208ZM8.25189 7.3688C6.81859 6.31016 4.67676 6.60676 3.59589 7.73894C4.77199 8.86284 7.05191 9.03259 8.42397 7.7561C8.46929 7.71422 8.51358 7.67051 8.55686 7.62495C8.46038 7.5331 8.3581 7.44754 8.25066 7.3688H8.25189ZM10.6815 0.569301C9.63436 1.40487 9.12699 3.07051 9.58353 4.48826C9.70115 4.85683 9.8848 5.2009 10.1255 5.50369C10.1524 5.48224 10.1788 5.46049 10.2048 5.43843C11.6583 4.19779 11.7091 1.86081 10.6803 0.569301H10.6815ZM10.5208 7.60075C10.3664 7.15205 10.1822 6.71414 9.96964 6.28993C9.7031 5.75888 9.3892 5.253 9.03177 4.77843C8.46163 4.02221 7.75555 3.32942 6.89698 2.79168C6.73969 2.69531 6.55074 2.66495 6.37121 2.70721C6.19168 2.74947 6.03607 2.86093 5.9382 3.01736C5.84034 3.17379 5.80812 3.36255 5.84855 3.54262C5.88899 3.72269 5.99881 3.87951 6.15415 3.97901C7.34218 4.72296 8.18759 5.8481 8.74486 6.97721C8.89318 7.27708 9.02494 7.58486 9.13955 7.89919C9.31058 8.35996 9.4404 8.83503 9.52749 9.31878C9.53209 9.34329 9.53607 9.3678 9.54005 9.392C9.70417 9.37239 9.87074 9.35892 10.0385 9.35187L10.1132 9.34942L10.1188 9.29764L10.1215 9.27465C10.1836 8.73064 10.3293 8.19949 10.5536 7.70002C10.5425 7.66754 10.5321 7.63353 10.5196 7.60075H10.5208ZM15.4006 5.10782C14.2384 5.10706 13.1158 5.53086 12.2437 6.29966C11.3716 7.06845 10.8099 8.12938 10.6641 9.28323C10.6607 9.30775 10.658 9.33226 10.6552 9.35708C10.6797 9.35708 10.7045 9.35983 10.729 9.36167C12.1314 9.45682 13.4623 10.0164 14.5118 10.9522C15.5613 11.8879 16.2697 13.1467 16.5253 14.5299C16.5495 14.524 16.5733 14.5179 16.5972 14.5115C17.7219 14.22 18.7019 13.5282 19.3534 12.5656C20.005 11.603 20.2835 10.4357 20.1367 9.28237C19.99 8.12906 19.428 7.06886 18.5562 6.30039C17.6844 5.53192 16.5624 5.10792 15.4006 5.10782ZM8.25189 7.3688C6.81859 6.31016 4.67676 6.60676 3.59589 7.73894C4.77199 8.86284 7.05191 9.03259 8.42397 7.7561C8.46929 7.71422 8.51358 7.67051 8.55686 7.62495C8.46038 7.5331 8.3581 7.44754 8.25066 7.3688H8.25189ZM10.6815 0.569301C9.63436 1.40487 9.12699 3.07051 9.58353 4.48826C9.70115 4.85683 9.8848 5.2009 10.1255 5.50369C10.1524 5.48224 10.1788 5.46049 10.2048 5.43843C11.6583 4.19779 11.7091 1.86081 10.6803 0.569301H10.6815ZM10.5208 7.60075C10.3664 7.15205 10.1822 6.71414 9.96964 6.28993C9.7031 5.75888 9.3892 5.253 9.03177 4.77843C8.46163 4.02221 7.75555 3.32942 6.89698 2.79168C6.73969 2.69531 6.55074 2.66495 6.37121 2.70721C6.19168 2.74947 6.03607 2.86093 5.9382 3.01736C5.84034 3.17379 5.80812 3.36255 5.84855 3.54262C5.88899 3.72269 5.99881 3.87951 6.15415 3.97901C7.34218 4.72296 8.18759 5.8481 8.74486 6.97721C8.89318 7.27708 9.02494 7.58486 9.13955 7.89919C9.31058 8.35996 9.4404 8.83503 9.52749 9.31878C9.53209 9.34329 9.53607 9.3678 9.54005 9.392C9.70417 9.37239 9.87074 9.35892 10.0385 9.35187L10.1132 9.34942L10.1188 9.29764L10.1215 9.27465C10.1836 8.73064 10.3293 8.19949 10.5536 7.70002C10.5425 7.66754 10.5321 7.63353 10.5196 7.60075H10.5208ZM16.0614 15.0875C15.7766 12.2866 13.4995 10.0753 10.6702 9.89727C10.5477 9.88971 10.4246 9.88583 10.3009 9.88563C10.1932 9.88563 10.0862 9.88859 9.98005 9.89452C9.65816 9.91196 9.33829 9.95635 9.0238 10.0272C6.44044 10.6094 4.5105 12.9191 4.5105 15.6801C4.50982 16.5903 4.72369 17.4877 5.13474 18.2997C5.54578 19.1116 6.14241 19.815 6.87615 20.3528L6.93739 20.3969C7.55344 19.6742 8.40941 19.1981 9.34807 19.0561L9.35786 18.9786C9.38267 18.9749 9.40777 18.9712 9.43319 18.9685C9.7207 16.6091 11.7342 14.7762 14.1679 14.7762C14.8027 14.7755 15.4312 14.9023 16.0161 15.1491L16.0693 15.1721C16.0657 15.1439 16.0629 15.1157 16.0602 15.0875H16.0614ZM15.4006 5.10782C14.2384 5.10706 13.1158 5.53086 12.2437 6.29966C11.3716 7.06845 10.8099 8.12938 10.6641 9.28323C10.6607 9.30775 10.658 9.33226 10.6552 9.35708C10.6797 9.35708 10.7045 9.35983 10.729 9.36167C12.1314 9.45682 13.4623 10.0164 14.5118 10.9522C15.5613 11.8879 16.2697 13.1467 16.5253 14.5299C16.5495 14.524 16.5733 14.5179 16.5972 14.5115C17.7219 14.22 18.7019 13.5282 19.3534 12.5656C20.005 11.603 20.2835 10.4357 20.1367 9.28237C19.99 8.12906 19.428 7.06886 18.5562 6.30039C17.6844 5.53192 16.5624 5.10792 15.4006 5.10782ZM8.25189 7.3688C6.81859 6.31016 4.67676 6.60676 3.59589 7.73894C4.77199 8.86284 7.05191 9.03259 8.42397 7.7561C8.46929 7.71422 8.51358 7.67051 8.55686 7.62495C8.46038 7.5331 8.3581 7.44754 8.25066 7.3688H8.25189ZM10.6815 0.569301C9.63436 1.40487 9.12699 3.07051 9.58353 4.48826C9.70115 4.85683 9.8848 5.2009 10.1255 5.50369C10.1524 5.48224 10.1788 5.46049 10.2048 5.43843C11.6583 4.19779 11.7091 1.86081 10.6803 0.569301H10.6815ZM10.5208 7.60075C10.3664 7.15205 10.1822 6.71414 9.96964 6.28993C9.7031 5.75888 9.3892 5.253 9.03177 4.77843C8.46163 4.02221 7.75555 3.32942 6.89698 2.79168C6.73969 2.69531 6.55074 2.66495 6.37121 2.70721C6.19168 2.74947 6.03607 2.86093 5.9382 3.01736C5.84034 3.17379 5.80812 3.36255 5.84855 3.54262C5.88899 3.72269 5.99881 3.87951 6.15415 3.97901C7.34218 4.72296 8.18759 5.8481 8.74486 6.97721C8.89318 7.27708 9.02494 7.58486 9.13955 7.89919C9.31058 8.35996 9.4404 8.83503 9.52749 9.31878C9.53209 9.34329 9.53607 9.3678 9.54005 9.392C9.70417 9.37239 9.87074 9.35892 10.0385 9.35187L10.1132 9.34942L10.1188 9.29764L10.1215 9.27465C10.1836 8.73064 10.3293 8.19949 10.5536 7.70002C10.5425 7.66754 10.5321 7.63353 10.5196 7.60075H10.5208ZM16.0614 15.0875C15.7766 12.2866 13.4995 10.0753 10.6702 9.89727C10.5477 9.88971 10.4246 9.88583 10.3009 9.88563C10.1932 9.88563 10.0862 9.88859 9.98005 9.89452C9.65816 9.91196 9.33829 9.95635 9.0238 10.0272C6.44044 10.6094 4.5105 12.9191 4.5105 15.6801C4.50982 16.5903 4.72369 17.4877 5.13474 18.2997C5.54578 19.1116 6.14241 19.815 6.87615 20.3528L6.93739 20.3969C7.55344 19.6742 8.40941 19.1981 9.34807 19.0561C9.37317 19.0521 9.39889 19.0488 9.42431 19.0454C9.42706 19.0196 9.42982 18.9939 9.43319 18.9685C9.7207 16.6091 11.7342 14.7762 14.1679 14.7762C14.8027 14.7755 15.4312 14.9023 16.0161 15.1491L16.0693 15.1721C16.0657 15.1439 16.0629 15.1157 16.0602 15.0875H16.0614ZM15.4006 5.10782C14.2384 5.10706 13.1158 5.53086 12.2437 6.29966C11.3716 7.06845 10.8099 8.12938 10.6641 9.28323C10.6607 9.30775 10.658 9.33226 10.6552 9.35708C10.6797 9.35708 10.7045 9.35983 10.729 9.36167C12.1314 9.45682 13.4623 10.0164 14.5118 10.9522C15.5613 11.8879 16.2697 13.1467 16.5253 14.5299C16.5495 14.524 16.5733 14.5179 16.5972 14.5115C17.7219 14.22 18.7019 13.5282 19.3534 12.5656C20.005 11.603 20.2835 10.4357 20.1367 9.28237C19.99 8.12906 19.428 7.06886 18.5562 6.30039C17.6844 5.53192 16.5624 5.10792 15.4006 5.10782ZM11.8855 0C11.5997 0 11.3162 0.0102136 11.0349 0.0306408L11.1601 0.187518C11.7753 0.959359 12.0744 2.02964 11.9807 3.12352C11.8809 4.28787 11.3576 5.30452 10.5073 5.98322L10.5018 5.98751C10.6653 6.31077 10.8013 6.61933 10.9139 6.90153C11.406 6.16173 12.073 5.55497 12.8557 5.13515C13.6384 4.71533 14.5126 4.49544 15.4006 4.495C18.3707 4.495 20.7875 6.91317 20.7875 9.88563C20.7873 11.0927 20.3824 12.2648 19.6376 13.2143C18.8928 14.1638 17.8512 14.8358 16.6796 15.1227L16.7056 15.4221C17.7517 16.0652 18.5145 17.082 18.8397 18.2667C19.1648 19.4514 19.0279 20.7155 18.4567 21.8031C21.6592 19.6726 23.7698 16.0291 23.7698 11.8923C23.7686 5.32444 18.4479 0 11.8843 0H11.8855ZM15.4006 5.10782C14.2384 5.10706 13.1158 5.53086 12.2437 6.29966C11.3716 7.06845 10.8099 8.12938 10.6641 9.28323C10.6607 9.30775 10.658 9.33226 10.6552 9.35708C10.6797 9.35708 10.7045 9.35983 10.729 9.36167C12.1314 9.45682 13.4623 10.0164 14.5118 10.9522C15.5613 11.8879 16.2697 13.1467 16.5253 14.5299C16.5495 14.524 16.5733 14.5179 16.5972 14.5115C17.7219 14.22 18.7019 13.5282 19.3534 12.5656C20.005 11.603 20.2835 10.4357 20.1367 9.28237C19.99 8.12906 19.428 7.06886 18.5562 6.30039C17.6844 5.53192 16.5624 5.10792 15.4006 5.10782ZM16.0614 15.0875C15.7766 12.2866 13.4995 10.0753 10.6702 9.89727C10.5477 9.88971 10.4246 9.88583 10.3009 9.88563C10.1932 9.88563 10.0862 9.88859 9.98005 9.89452C9.65816 9.91196 9.33829 9.95635 9.0238 10.0272C6.44044 10.6094 4.5105 12.9191 4.5105 15.6801C4.50982 16.5903 4.72369 17.4877 5.13474 18.2997C5.54578 19.1116 6.14241 19.815 6.87615 20.3528L6.93739 20.3969C7.55344 19.6742 8.40941 19.1981 9.34807 19.0561C9.37317 19.0521 9.39889 19.0488 9.42431 19.0454C9.42706 19.0196 9.42982 18.9939 9.43319 18.9685C9.7207 16.6091 11.7342 14.7762 14.1679 14.7762C14.8027 14.7755 15.4312 14.9023 16.0161 15.1491L16.0693 15.1721C16.0657 15.1439 16.0629 15.1157 16.0602 15.0875H16.0614ZM10.5196 7.60075C10.3651 7.15205 10.181 6.71414 9.96842 6.28993C9.70227 5.75893 9.38878 5.25304 9.03177 4.77843C8.46163 4.02221 7.75555 3.32942 6.89698 2.79168C6.73969 2.69531 6.55074 2.66495 6.37121 2.70721C6.19168 2.74947 6.03607 2.86093 5.9382 3.01736C5.84034 3.17379 5.80812 3.36255 5.84855 3.54262C5.88899 3.72269 5.99881 3.87951 6.15415 3.97901C7.34218 4.72296 8.18759 5.8481 8.74486 6.97721C8.89318 7.27708 9.02494 7.58486 9.13955 7.89919C9.31058 8.35996 9.4404 8.83503 9.52749 9.31878C9.53209 9.34329 9.53607 9.3678 9.54005 9.392C9.70417 9.37239 9.87074 9.35892 10.0385 9.35187L10.1132 9.34942L10.1188 9.29764L10.1215 9.27465C10.1836 8.73064 10.3293 8.19949 10.5536 7.70002C10.5425 7.66754 10.5321 7.63353 10.5196 7.60075ZM10.6803 0.569301C9.63313 1.40487 9.12577 3.07051 9.5823 4.48826C9.69993 4.85683 9.88357 5.2009 10.1243 5.50369C10.1512 5.48224 10.1775 5.46049 10.2036 5.43843C11.6583 4.19779 11.7091 1.86081 10.6803 0.569301ZM8.25066 7.3688C6.81737 6.31016 4.67553 6.60676 3.59467 7.73894C4.77076 8.86284 7.05069 9.03259 8.42274 7.7561C8.46806 7.71422 8.51236 7.67051 8.55563 7.62495C8.45955 7.53314 8.35768 7.44758 8.25066 7.3688ZM15.4006 5.10782C14.2384 5.10706 13.1158 5.53086 12.2437 6.29966C11.3716 7.06845 10.8099 8.12938 10.6641 9.28323C10.6607 9.30775 10.658 9.33226 10.6552 9.35708C10.6797 9.35708 10.7045 9.35983 10.729 9.36167C12.1314 9.45682 13.4623 10.0164 14.5118 10.9522C15.5613 11.8879 16.2697 13.1467 16.5253 14.5299C16.5495 14.524 16.5733 14.5179 16.5972 14.5115C17.7219 14.22 18.7019 13.5282 19.3534 12.5656C20.005 11.603 20.2835 10.4357 20.1367 9.28237C19.99 8.12906 19.428 7.06886 18.5562 6.30039C17.6844 5.53192 16.5624 5.10792 15.4006 5.10782ZM16.0614 15.0875C15.7766 12.2866 13.4995 10.0753 10.6702 9.89727C10.5477 9.88971 10.4246 9.88583 10.3009 9.88563C10.1932 9.88563 10.0862 9.88859 9.98005 9.89452C9.65816 9.91196 9.33829 9.95635 9.0238 10.0272C6.44044 10.6094 4.5105 12.9191 4.5105 15.6801C4.50982 16.5903 4.72369 17.4877 5.13474 18.2997C5.54578 19.1116 6.14241 19.815 6.87615 20.3528L6.93739 20.3969C7.55344 19.6742 8.40941 19.1981 9.34807 19.0561C9.37317 19.0521 9.39889 19.0488 9.42431 19.0454C9.42706 19.0196 9.42982 18.9939 9.43319 18.9685C9.7207 16.6091 11.7342 14.7762 14.1679 14.7762C14.8027 14.7755 15.4312 14.9023 16.0161 15.1491L16.0693 15.1721C16.0657 15.1439 16.0629 15.1157 16.0602 15.0875H16.0614ZM10.5196 7.60075C10.3651 7.15205 10.181 6.71414 9.96842 6.28993C9.70227 5.75893 9.38878 5.25304 9.03177 4.77843C8.46163 4.02221 7.75555 3.32942 6.89698 2.79168C6.73969 2.69531 6.55074 2.66495 6.37121 2.70721C6.19168 2.74947 6.03607 2.86093 5.9382 3.01736C5.84034 3.17379 5.80812 3.36255 5.84855 3.54262C5.88899 3.72269 5.99881 3.87951 6.15415 3.97901C7.34218 4.72296 8.18759 5.8481 8.74486 6.97721C8.89318 7.27708 9.02494 7.58486 9.13955 7.89919C9.31058 8.35996 9.4404 8.83503 9.52749 9.31878C9.53209 9.34329 9.53607 9.3678 9.54005 9.392C9.70417 9.37239 9.87074 9.35892 10.0385 9.35187L10.1132 9.34942L10.1188 9.29764L10.1215 9.27465C10.1836 8.73064 10.3293 8.19949 10.5536 7.70002C10.5425 7.66754 10.5321 7.63353 10.5196 7.60075ZM10.6803 0.569301C9.63313 1.40487 9.12577 3.07051 9.5823 4.48826C9.69993 4.85683 9.88357 5.2009 10.1243 5.50369C10.1512 5.48224 10.1775 5.46049 10.2036 5.43843C11.6583 4.19779 11.7091 1.86081 10.6803 0.569301ZM8.25066 7.3688C6.81737 6.31016 4.67553 6.60676 3.59467 7.73894C4.77076 8.86284 7.05069 9.03259 8.42274 7.7561C8.46806 7.71422 8.51236 7.67051 8.55563 7.62495C8.45955 7.53314 8.35768 7.44758 8.25066 7.3688ZM15.4006 5.10782C14.2384 5.10706 13.1158 5.53086 12.2437 6.29966C11.3716 7.06845 10.8099 8.12938 10.6641 9.28323C10.6607 9.30775 10.658 9.33226 10.6552 9.35708C10.6797 9.35708 10.7045 9.35983 10.729 9.36167C12.1314 9.45682 13.4623 10.0164 14.5118 10.9522C15.5613 11.8879 16.2697 13.1467 16.5253 14.5299C16.5495 14.524 16.5733 14.5179 16.5972 14.5115C17.7219 14.22 18.7019 13.5282 19.3534 12.5656C20.005 11.603 20.2835 10.4357 20.1367 9.28237C19.99 8.12906 19.428 7.06886 18.5562 6.30039C17.6844 5.53192 16.5624 5.10792 15.4006 5.10782ZM16.0614 15.0875C15.7766 12.2866 13.4995 10.0753 10.6702 9.89727C10.5477 9.88971 10.4246 9.88583 10.3009 9.88563C10.1932 9.88563 10.0862 9.88859 9.98005 9.89452C9.65816 9.91196 9.33829 9.95635 9.0238 10.0272C6.44044 10.6094 4.5105 12.9191 4.5105 15.6801C4.50982 16.5903 4.72369 17.4877 5.13474 18.2997C5.54578 19.1116 6.14241 19.815 6.87615 20.3528C7.50894 19.6081 8.39119 19.1195 9.35786 18.9786C9.38267 18.9749 9.40777 18.9712 9.43319 18.9685C9.7207 16.6091 11.7342 14.7762 14.1679 14.7762C14.8027 14.7755 15.4312 14.9023 16.0161 15.1491L16.0693 15.1721C16.0657 15.1439 16.0629 15.1157 16.0602 15.0875H16.0614ZM10.5196 7.60075C10.3651 7.15205 10.181 6.71414 9.96842 6.28993C9.70227 5.75893 9.38878 5.25304 9.03177 4.77843C8.46163 4.02221 7.75555 3.32942 6.89698 2.79168C6.73969 2.69531 6.55074 2.66495 6.37121 2.70721C6.19168 2.74947 6.03607 2.86093 5.9382 3.01736C5.84034 3.17379 5.80812 3.36255 5.84855 3.54262C5.88899 3.72269 5.99881 3.87951 6.15415 3.97901C7.34218 4.72296 8.18759 5.8481 8.74486 6.97721C8.89318 7.27708 9.02494 7.58486 9.13955 7.89919C9.31058 8.35996 9.4404 8.83503 9.52749 9.31878C9.53209 9.34329 9.53607 9.3678 9.54005 9.392C9.70417 9.37239 9.87074 9.35892 10.0385 9.35187L10.1132 9.34942L10.1188 9.29764L10.1215 9.27465C10.1836 8.73064 10.3293 8.19949 10.5536 7.70002C10.5425 7.66754 10.5321 7.63353 10.5196 7.60075ZM10.6803 0.569301C9.63313 1.40487 9.12577 3.07051 9.5823 4.48826C9.69993 4.85683 9.88357 5.2009 10.1243 5.50369C10.1512 5.48224 10.1775 5.46049 10.2036 5.43843C11.6583 4.19779 11.7091 1.86081 10.6803 0.569301ZM8.25066 7.3688C6.81737 6.31016 4.67553 6.60676 3.59467 7.73894C4.77076 8.86284 7.05069 9.03259 8.42274 7.7561C8.46806 7.71422 8.51236 7.67051 8.55563 7.62495C8.45955 7.53314 8.35768 7.44758 8.25066 7.3688ZM15.4006 5.10782C14.2384 5.10706 13.1158 5.53086 12.2437 6.29966C11.3716 7.06845 10.8099 8.12938 10.6641 9.28323C10.6607 9.30775 10.658 9.33226 10.6552 9.35708C10.6797 9.35708 10.7045 9.35983 10.729 9.36167C12.1314 9.45682 13.4623 10.0164 14.5118 10.9522C15.5613 11.8879 16.2697 13.1467 16.5253 14.5299C16.5495 14.524 16.5733 14.5179 16.5972 14.5115C17.7219 14.22 18.7019 13.5282 19.3534 12.5656C20.005 11.603 20.2835 10.4357 20.1367 9.28237C19.99 8.12906 19.428 7.06886 18.5562 6.30039C17.6844 5.53192 16.5624 5.10792 15.4006 5.10782ZM10.5208 7.60075C10.3664 7.15205 10.1822 6.71414 9.96964 6.28993C9.7031 5.75888 9.3892 5.253 9.03177 4.77843C8.46163 4.02221 7.75555 3.32942 6.89698 2.79168C6.73969 2.69531 6.55074 2.66495 6.37121 2.70721C6.19168 2.74947 6.03607 2.86093 5.9382 3.01736C5.84034 3.17379 5.80812 3.36255 5.84855 3.54262C5.88899 3.72269 5.99881 3.87951 6.15415 3.97901C7.34218 4.72296 8.18759 5.8481 8.74486 6.97721C8.89318 7.27708 9.02494 7.58486 9.13955 7.89919C9.31058 8.35996 9.4404 8.83503 9.52749 9.31878C9.53209 9.34329 9.53607 9.3678 9.54005 9.392C9.70417 9.37239 9.87074 9.35892 10.0385 9.35187L10.1132 9.34942L10.1188 9.29764L10.1215 9.27465C10.1836 8.73064 10.3293 8.19949 10.5536 7.70002C10.5425 7.66754 10.5321 7.63353 10.5196 7.60075H10.5208ZM10.6815 0.569301C9.63436 1.40487 9.12699 3.07051 9.58353 4.48826C9.70115 4.85683 9.8848 5.2009 10.1255 5.50369C10.1524 5.48224 10.1788 5.46049 10.2048 5.43843C11.6583 4.19779 11.7091 1.86081 10.6803 0.569301H10.6815ZM8.25189 7.3688C6.81859 6.31016 4.67676 6.60676 3.59589 7.73894C4.77199 8.86284 7.05191 9.03259 8.42397 7.7561C8.46929 7.71422 8.51358 7.67051 8.55686 7.62495C8.46038 7.5331 8.3581 7.44754 8.25066 7.3688H8.25189ZM15.4006 5.10782C14.2384 5.10706 13.1158 5.53086 12.2437 6.29966C11.3716 7.06845 10.8099 8.12938 10.6641 9.28323C10.6607 9.30775 10.658 9.33226 10.6552 9.35708C10.6797 9.35708 10.7045 9.35983 10.729 9.36167C12.1314 9.45682 13.4623 10.0164 14.5118 10.9522C15.5613 11.8879 16.2697 13.1467 16.5253 14.5299C16.5495 14.524 16.5733 14.5179 16.5972 14.5115C17.7219 14.22 18.7019 13.5282 19.3534 12.5656C20.005 11.603 20.2835 10.4357 20.1367 9.28237C19.99 8.12906 19.428 7.06886 18.5562 6.30039C17.6844 5.53192 16.5624 5.10792 15.4006 5.10782ZM16.0614 15.0875C15.7766 12.2866 13.4995 10.0753 10.6702 9.89727C10.5477 9.88971 10.4246 9.88583 10.3009 9.88563C10.1932 9.88563 10.0862 9.88859 9.98005 9.89452C9.65816 9.91196 9.33829 9.95635 9.0238 10.0272C6.44044 10.6094 4.5105 12.9191 4.5105 15.6801C4.50982 16.5903 4.72369 17.4877 5.13474 18.2997C5.54578 19.1116 6.14241 19.815 6.87615 20.3528L6.93739 20.3969C7.55344 19.6742 8.40941 19.1981 9.34807 19.0561C9.37317 19.0521 9.39889 19.0488 9.42431 19.0454C9.42706 19.0196 9.42982 18.9939 9.43319 18.9685C9.7207 16.6091 11.7342 14.7762 14.1679 14.7762C14.8027 14.7755 15.4312 14.9023 16.0161 15.1491L16.0693 15.1721C16.0657 15.1439 16.0629 15.1157 16.0602 15.0875H16.0614ZM16.5562 16.053C15.9634 15.6476 15.2772 15.3998 14.5622 15.3329C13.8473 15.266 13.1271 15.3823 12.4695 15.6708C11.8118 15.9593 11.2383 16.4105 10.803 16.9819C10.3677 17.5533 10.0848 18.2262 9.98097 18.9372C9.97699 18.962 9.97362 18.9869 9.97056 19.012H10.0444C12.1706 19.0702 13.8822 20.8198 13.8822 22.9591C13.8822 23.1826 13.8632 23.4057 13.8252 23.6259C13.851 23.6219 13.8767 23.6176 13.9024 23.6127C15.0286 23.4204 16.1209 23.0653 17.145 22.5584C17.5883 22.1191 17.9291 21.5872 18.143 21.0008C18.3569 20.4143 18.4386 19.7878 18.3822 19.1661C18.3259 18.5444 18.133 17.9428 17.8172 17.4044C17.5014 16.866 17.0706 16.4041 16.5556 16.0518L16.5562 16.053ZM10.2764 0.108155C4.47345 0.892559 -0.000976562 5.87016 -0.000976562 11.8926C-0.000976562 16.3113 2.40694 20.1671 5.98145 22.2185C6.07265 21.733 6.25287 21.2685 6.51301 20.8486C5.70126 20.2541 5.04115 19.4763 4.58636 18.5784C4.13157 17.6805 3.89492 16.688 3.89566 15.6813C3.89566 12.6209 6.05127 10.0548 8.92276 9.42295C8.85753 9.0657 8.76655 8.71364 8.65055 8.36952C7.94049 8.94864 7.02772 9.26301 6.03779 9.26301C4.93366 9.26301 3.88892 8.86927 3.17089 8.18323L2.72814 7.76008L3.15283 7.31549C3.87912 6.55467 5.00867 6.10057 6.17497 6.10057C6.69429 6.09891 7.20953 6.19237 7.69523 6.37634C7.22736 5.66364 6.61466 4.99077 5.83111 4.4999C5.5358 4.31523 5.32589 4.02073 5.24757 3.68118C5.16924 3.34163 5.22892 2.98485 5.41346 2.68933C5.59801 2.39382 5.89231 2.18377 6.23162 2.10539C6.57093 2.02701 6.92745 2.08672 7.22277 2.2714C7.80082 2.63495 8.33189 3.06842 8.80396 3.56199C8.79426 3.29686 8.80809 3.03138 8.84529 2.7687C8.99594 1.6929 9.51709 0.724341 10.2764 0.108155ZM9.98556 19.5503C9.96872 19.5503 9.95188 19.5503 9.93473 19.5503C9.10615 19.55 8.30585 19.8519 7.68359 20.3994C7.06134 20.9469 6.65977 21.7026 6.55404 22.525C8.20781 23.3565 10.0335 23.7883 11.8843 23.7855C12.3183 23.7856 12.752 23.7621 13.1835 23.715C13.2092 23.7126 13.2346 23.7095 13.2603 23.7068C13.3712 23.212 13.3705 22.6987 13.2581 22.2042C13.1458 21.7097 12.9246 21.2466 12.6107 20.8484C12.2969 20.4503 11.8982 20.1273 11.4438 19.9028C10.9894 19.6784 10.4907 19.5582 9.98403 19.551L9.98556 19.5503ZM10.5196 7.60044C10.3651 7.15174 10.181 6.71383 9.96842 6.28963C9.70225 5.75873 9.38877 5.25295 9.03177 4.77843C8.46163 4.02221 7.75555 3.32942 6.89698 2.79168C6.73969 2.69531 6.55074 2.66495 6.37121 2.70721C6.19168 2.74947 6.03607 2.86093 5.9382 3.01736C5.84034 3.17379 5.80812 3.36255 5.84855 3.54262C5.88899 3.72269 5.99881 3.87951 6.15415 3.97901C7.34218 4.72296 8.18759 5.8481 8.74486 6.97721C8.89318 7.27708 9.02494 7.58486 9.13955 7.89919C9.31058 8.35996 9.4404 8.83503 9.52749 9.31878C9.53209 9.34329 9.53607 9.3678 9.54005 9.392C9.70417 9.37239 9.87074 9.35892 10.0385 9.35187L10.1132 9.34942L10.1188 9.29764L10.1215 9.27465C10.1836 8.73064 10.3293 8.19949 10.5536 7.70002C10.5425 7.66754 10.5321 7.63353 10.5196 7.60075V7.60044ZM10.6803 0.568994C9.63313 1.40457 9.12577 3.0702 9.5823 4.48795C9.69993 4.85652 9.88357 5.2006 10.1243 5.50339C10.1512 5.48194 10.1775 5.46019 10.2036 5.43812C11.6583 4.19779 11.7091 1.86081 10.6803 0.569301V0.568994ZM8.25066 7.36849C6.81737 6.30985 4.67553 6.60645 3.59467 7.73863C4.77076 8.86253 7.05069 9.03228 8.42274 7.75579C8.46806 7.71391 8.51236 7.6702 8.55563 7.62465C8.45954 7.53294 8.35767 7.44748 8.25066 7.3688V7.36849ZM10.6803 0.568994C9.63313 1.40457 9.12577 3.0702 9.5823 4.48795C9.69993 4.85652 9.88357 5.2006 10.1243 5.50339C10.1512 5.48194 10.1775 5.46019 10.2036 5.43812C11.6583 4.19779 11.7091 1.86081 10.6803 0.569301V0.568994ZM8.25066 7.36849C6.81737 6.30985 4.67553 6.60645 3.59467 7.73863C4.77076 8.86253 7.05069 9.03228 8.42274 7.75579C8.46806 7.71391 8.51236 7.6702 8.55563 7.62465C8.45954 7.53294 8.35767 7.44748 8.25066 7.3688V7.36849ZM10.6803 0.568994C9.63313 1.40457 9.12577 3.0702 9.5823 4.48795C9.69993 4.85652 9.88357 5.2006 10.1243 5.50339C10.1512 5.48194 10.1775 5.46019 10.2036 5.43812C11.6583 4.19779 11.7091 1.86081 10.6803 0.569301V0.568994ZM8.25066 7.36849C6.81737 6.30985 4.67553 6.60645 3.59467 7.73863C4.77076 8.86253 7.05069 9.03228 8.42274 7.75579C8.46806 7.71391 8.51236 7.6702 8.55563 7.62465C8.45954 7.53294 8.35767 7.44748 8.25066 7.3688V7.36849ZM10.6803 0.568994C9.63313 1.40457 9.12577 3.0702 9.5823 4.48795C9.69993 4.85652 9.88357 5.2006 10.1243 5.50339C10.1512 5.48194 10.1775 5.46019 10.2036 5.43812C11.6583 4.19779 11.7091 1.86081 10.6803 0.569301V0.568994ZM10.6803 0.568994C9.63313 1.40457 9.12577 3.0702 9.5823 4.48795C9.69993 4.85652 9.88357 5.2006 10.1243 5.50339C10.1512 5.48194 10.1775 5.46019 10.2036 5.43812C11.6583 4.19779 11.7091 1.86081 10.6803 0.569301V0.568994ZM15.4006 5.10782C14.2384 5.10706 13.1158 5.53086 12.2437 6.29966C11.3716 7.06845 10.8099 8.12938 10.6641 9.28323L10.7382 9.28752C10.7348 9.31234 10.7318 9.33685 10.729 9.36167C12.1314 9.45682 13.4623 10.0164 14.5118 10.9522C15.5613 11.8879 16.2697 13.1467 16.5253 14.5299C16.5495 14.524 16.5733 14.5179 16.5972 14.5115C17.7219 14.22 18.7019 13.5282 19.3534 12.5656C20.005 11.603 20.2835 10.4357 20.1367 9.28237C19.99 8.12906 19.428 7.06886 18.5562 6.30039C17.6844 5.53192 16.5624 5.10792 15.4006 5.10782Z" fill="white"/>
<path d="M12.8989 23.8691C12.9831 23.8691 13.0667 23.8725 13.1491 23.8795C13.1711 23.8811 13.1931 23.8832 13.2149 23.8853C13.2216 23.8614 13.2281 23.8372 13.2342 23.813C13.2434 23.7778 13.2522 23.742 13.2602 23.7061C13.3711 23.2113 13.3704 22.698 13.258 22.2035C13.1456 21.7091 12.9245 21.2459 12.6106 20.8478C12.2967 20.4497 11.8981 20.1266 11.4437 19.9022C10.9893 19.6777 10.4906 19.5575 9.98392 19.5503C9.96708 19.5503 9.95024 19.5503 9.93309 19.5503C9.10477 19.5504 8.30484 19.8524 7.6829 20.3999C7.06097 20.9473 6.65962 21.7028 6.55393 22.5249C6.5356 22.6695 6.52639 22.8151 6.52637 22.9609C6.52638 23.8478 6.87171 24.6999 7.4891 25.3362C8.10649 25.9726 8.94735 26.3432 9.83327 26.3694C9.85838 26.3694 9.88349 26.3694 9.9089 26.3709C10.0359 25.6697 10.4047 25.0352 10.9511 24.5781C11.4974 24.1209 12.1867 23.87 12.8989 23.8691Z" fill="white"/>
<path d="M13.6695 24.5293C13.2943 24.4079 12.8957 24.3771 12.5063 24.4392C12.1169 24.5013 11.7476 24.6546 11.4287 24.8867C11.1098 25.1188 10.8502 25.4231 10.6712 25.7746C10.4921 26.1262 10.3987 26.5152 10.3984 26.9098C10.3984 26.9355 10.3984 26.9613 10.4 26.987C10.4142 27.445 10.5538 27.8902 10.8036 28.2742C11.0534 28.6582 11.4038 28.9662 11.8165 29.1645C12.2292 29.3629 12.6884 29.444 13.1441 29.3991C13.5997 29.3541 14.0343 29.1848 14.4004 28.9096C14.7665 28.6345 15.05 28.264 15.2201 27.8386C15.3901 27.4132 15.4402 26.9492 15.3648 26.4973C15.2894 26.0454 15.0914 25.6228 14.7925 25.2758C14.4935 24.9288 14.1051 24.6706 13.6695 24.5293Z" fill="white"/>
<path d="M6.93618 20.3971C7.55223 19.6743 8.40819 19.1982 9.34685 19.0562C9.37196 19.0522 9.39768 19.0489 9.42309 19.0455C9.42585 19.0198 9.4286 18.994 9.43197 18.9686C9.71949 16.6092 11.733 14.7763 14.1667 14.7763C14.8015 14.7756 15.4299 14.9024 16.0149 15.1492L16.0681 15.1722C16.0657 15.144 16.0629 15.1158 16.0602 15.0876C15.7754 12.2868 13.4982 10.0754 10.669 9.89738C10.5465 9.88982 10.4234 9.88595 10.2997 9.88574C10.1919 9.88574 10.085 9.88871 9.97884 9.89463C9.65695 9.91208 9.33708 9.95646 9.02259 10.0273C6.43923 10.6095 4.50928 12.9192 4.50928 15.6802C4.5086 16.5904 4.72248 17.4879 5.13352 18.2998C5.54457 19.1117 6.14119 19.8151 6.87494 20.3529L6.93618 20.3971Z" fill="white"/>
<path d="M15.4007 5.10791C14.2384 5.10716 13.1159 5.53095 12.2438 6.29975C11.3717 7.06855 10.81 8.12947 10.6642 9.28333C10.6608 9.30784 10.658 9.33235 10.6553 9.35717C10.6798 9.35717 10.7046 9.35993 10.7291 9.36176C12.1315 9.45692 13.4624 10.0165 14.5119 10.9523C15.5614 11.888 16.2698 13.1468 16.5253 14.5299C16.5495 14.5241 16.5734 14.518 16.5973 14.5116C17.722 14.2201 18.7019 13.5282 19.3535 12.5657C20.0051 11.6031 20.2836 10.4358 20.1368 9.28247C19.99 8.12915 19.4281 7.06895 18.5563 6.30048C17.6844 5.53202 16.5625 5.10802 15.4007 5.10791Z" fill="white"/>
<path d="M6.1546 3.97913C7.34264 4.72308 8.18804 5.84821 8.74531 6.97733C8.89364 7.27719 9.0254 7.58498 9.14 7.8993C9.31072 8.36011 9.44024 8.83517 9.52703 9.31889C9.53162 9.3434 9.5356 9.36791 9.53958 9.39212C9.7037 9.37251 9.87027 9.35903 10.0381 9.35198L10.1128 9.34953L10.1183 9.29775L10.121 9.27477C10.1831 8.73075 10.3289 8.19961 10.5531 7.70014C10.5421 7.66704 10.5307 7.63365 10.5191 7.60025C10.3647 7.15155 10.1805 6.71364 9.96795 6.28943C9.70177 5.75864 9.38828 5.25297 9.0313 4.77855C8.46117 4.02233 7.75508 3.32954 6.89651 2.7918C6.73922 2.69543 6.55028 2.66507 6.37075 2.70733C6.19121 2.74959 6.0356 2.86105 5.93774 3.01748C5.83987 3.17391 5.80765 3.36267 5.84809 3.54274C5.88852 3.72281 5.99834 3.87963 6.15368 3.97913H6.1546Z" fill="white"/>
<path d="M8.42256 7.75621C8.46788 7.71433 8.51218 7.67062 8.55545 7.62506C8.45897 7.53321 8.3567 7.44765 8.24926 7.36891C6.81596 6.31027 4.67413 6.60687 3.59326 7.73905C4.77058 8.86295 7.05051 9.0327 8.42256 7.75621Z" fill="white"/>
<path d="M10.1243 5.50373C10.1513 5.48228 10.1776 5.46053 10.2036 5.43846C11.6584 4.19782 11.7092 1.86084 10.6804 0.569336C9.63319 1.40491 9.12582 3.07055 9.58236 4.48829C9.69998 4.85686 9.88363 5.20094 10.1243 5.50373Z" fill="white"/>
</g>
<path d="M44.5046 22.2689C43.7195 22.9441 42.8402 23.4622 41.8667 23.8234C40.8932 24.1845 39.8844 24.3651 38.8402 24.3651C38.0394 24.3651 37.2661 24.2591 36.5203 24.0471C35.7823 23.843 35.0875 23.5525 34.4359 23.1757C33.7922 22.791 33.2033 22.3317 32.6695 21.7979C32.1356 21.264 31.6764 20.6752 31.2917 20.0314C30.9148 19.3798 30.6204 18.685 30.4085 17.947C30.2043 17.2012 30.1023 16.4279 30.1023 15.6271C30.1023 14.8263 30.2043 14.053 30.4085 13.3072C30.6204 12.5614 30.9148 11.8666 31.2917 11.2228C31.6764 10.5712 32.1356 9.97848 32.6695 9.44462C33.2033 8.91077 33.7922 8.45542 34.4359 8.07858C35.0875 7.69389 35.7823 7.39949 36.5203 7.19537C37.2661 6.9834 38.0394 6.87741 38.8402 6.87741C39.8844 6.87741 40.8932 7.05798 41.8667 7.41912C42.8402 7.7724 43.7195 8.29055 44.5046 8.97357L42.7146 11.9176C42.22 11.3838 41.6351 10.9755 40.9599 10.6929C40.2848 10.4024 39.5782 10.2572 38.8402 10.2572C38.0944 10.2572 37.3957 10.3985 36.7441 10.6811C36.0924 10.9638 35.5233 11.3484 35.0365 11.8352C34.5498 12.3141 34.1651 12.8833 33.8824 13.5427C33.5998 14.1944 33.4585 14.8891 33.4585 15.6271C33.4585 16.3651 33.5998 17.0599 33.8824 17.7115C34.1651 18.3553 34.5498 18.9205 35.0365 19.4073C35.5233 19.894 36.0924 20.2787 36.7441 20.5614C37.3957 20.844 38.0944 20.9853 38.8402 20.9853C39.5782 20.9853 40.2848 20.844 40.9599 20.5614C41.6351 20.2709 42.22 19.8587 42.7146 19.3249L44.5046 22.2689ZM50.6988 20.9146C50.8245 20.9539 50.9501 20.9814 51.0757 20.9971C51.2013 21.0049 51.3269 21.0088 51.4525 21.0088C51.7666 21.0088 52.0688 20.9657 52.3593 20.8793C52.6498 20.7929 52.9206 20.6713 53.1718 20.5142C53.4309 20.3494 53.6586 20.1531 53.8549 19.9254C54.059 19.6899 54.2239 19.4308 54.3495 19.1482L56.7047 21.5152C56.4064 21.9392 56.0609 22.3199 55.6684 22.6575C55.2837 22.9951 54.8637 23.2817 54.4083 23.5172C53.9609 23.7527 53.4859 23.9293 52.9834 24.0471C52.4888 24.1727 51.9785 24.2355 51.4525 24.2355C50.5654 24.2355 49.7293 24.0707 48.9442 23.7409C48.167 23.4112 47.4839 22.9519 46.8951 22.3631C46.3142 21.7743 45.8549 21.0756 45.5173 20.2669C45.1797 19.4505 45.0109 18.5555 45.0109 17.582C45.0109 16.5849 45.1797 15.6742 45.5173 14.8499C45.8549 14.0256 46.3142 13.3229 46.8951 12.742C47.4839 12.161 48.167 11.7096 48.9442 11.3877C49.7293 11.0658 50.5654 10.9049 51.4525 10.9049C51.9785 10.9049 52.4928 10.9677 52.9952 11.0933C53.4977 11.2189 53.9726 11.3995 54.4201 11.635C54.8755 11.8705 55.2994 12.161 55.692 12.5064C56.0845 12.844 56.4299 13.2248 56.7283 13.6487L50.6988 20.9146ZM52.3475 14.2846C52.1983 14.2297 52.0492 14.1944 51.9 14.1787C51.7587 14.163 51.6095 14.1551 51.4525 14.1551C51.0129 14.1551 50.5968 14.2375 50.2042 14.4024C49.8196 14.5594 49.482 14.7871 49.1915 15.0854C48.9089 15.3838 48.6851 15.7449 48.5203 16.1688C48.3554 16.5849 48.273 17.056 48.273 17.582C48.273 17.6997 48.2769 17.8332 48.2847 17.9824C48.3004 18.1315 48.3201 18.2846 48.3436 18.4416C48.375 18.5908 48.4103 18.736 48.4496 18.8774C48.4888 19.0187 48.5399 19.1443 48.6027 19.2542L52.3475 14.2846ZM61.5918 24H58.3534V6.37103H61.5918V24ZM67.2915 24H64.0531V6.37103H67.2915V24ZM81.9646 24H81.1874L79.9391 22.2689C79.633 22.5437 79.3072 22.8028 78.9617 23.0461C78.6241 23.2817 78.2669 23.4897 77.8901 23.6703C77.5132 23.843 77.1246 23.9804 76.7242 24.0824C76.3317 24.1845 75.9313 24.2355 75.5231 24.2355C74.6359 24.2355 73.7998 24.0864 73.0147 23.788C72.2375 23.4897 71.5545 23.0579 70.9657 22.4926C70.3847 21.9195 69.9254 21.2208 69.5879 20.3965C69.2503 19.5722 69.0815 18.634 69.0815 17.582C69.0815 16.6006 69.2503 15.7017 69.5879 14.8852C69.9254 14.0609 70.3847 13.3543 70.9657 12.7655C71.5545 12.1767 72.2375 11.7214 73.0147 11.3995C73.7998 11.0697 74.6359 10.9049 75.5231 10.9049C75.9313 10.9049 76.3356 10.9559 76.736 11.058C77.1364 11.16 77.525 11.3013 77.9019 11.4819C78.2787 11.6625 78.6359 11.8744 78.9735 12.1178C79.3189 12.3612 79.6408 12.6242 79.9391 12.9068L81.1874 11.4112H81.9646V24ZM78.7262 17.582C78.7262 17.1423 78.6398 16.7184 78.4671 16.3101C78.3023 15.8941 78.0746 15.529 77.7841 15.215C77.4936 14.8931 77.1521 14.6379 76.7596 14.4495C76.3749 14.2532 75.9627 14.1551 75.5231 14.1551C75.0834 14.1551 74.6673 14.2297 74.2748 14.3788C73.8901 14.528 73.5525 14.7478 73.262 15.0383C72.9794 15.3288 72.7557 15.6899 72.5908 16.1217C72.4259 16.5457 72.3435 17.0324 72.3435 17.582C72.3435 18.1315 72.4259 18.6222 72.5908 19.054C72.7557 19.4779 72.9794 19.8352 73.262 20.1256C73.5525 20.4161 73.8901 20.6359 74.2748 20.7851C74.6673 20.9343 75.0834 21.0088 75.5231 21.0088C75.9627 21.0088 76.3749 20.9146 76.7596 20.7262C77.1521 20.5299 77.4936 20.2748 77.7841 19.9608C78.0746 19.6389 78.3023 19.2738 78.4671 18.8656C78.6398 18.4495 78.7262 18.0216 78.7262 17.582ZM87.6408 24H84.4259V11.3877H85.2031L86.263 12.8833C86.7811 12.4122 87.3699 12.0511 88.0294 11.7999C88.6889 11.5408 89.3719 11.4112 90.0784 11.4112H92.9165V14.6144H90.0784C89.7409 14.6144 89.4229 14.6772 89.1246 14.8028C88.8262 14.9284 88.5672 15.1011 88.3473 15.3209C88.1275 15.5408 87.9548 15.7998 87.8292 16.0982C87.7036 16.3965 87.6408 16.7145 87.6408 17.052V24ZM105.199 13.896L102.844 16.263C102.726 15.9333 102.565 15.6389 102.361 15.3798C102.157 15.1129 101.925 14.8891 101.666 14.7086C101.415 14.528 101.14 14.3906 100.842 14.2964C100.544 14.2022 100.237 14.1551 99.9233 14.1551C99.4837 14.1551 99.0676 14.2454 98.6751 14.426C98.2904 14.6065 97.9528 14.8617 97.6623 15.1914C97.3797 15.5133 97.1559 15.898 96.9911 16.3455C96.8262 16.793 96.7438 17.2876 96.7438 17.8293C96.7438 18.2689 96.8262 18.6811 96.9911 19.0658C97.1559 19.4505 97.3797 19.788 97.6623 20.0785C97.9528 20.369 98.2904 20.5967 98.6751 20.7615C99.0676 20.9264 99.4837 21.0088 99.9233 21.0088C100.237 21.0088 100.54 20.9657 100.83 20.8793C101.121 20.7929 101.391 20.6713 101.643 20.5142C101.902 20.3494 102.129 20.1531 102.326 19.9254C102.53 19.6899 102.695 19.4308 102.82 19.1482L105.176 21.5152C104.877 21.9392 104.532 22.3199 104.139 22.6575C103.755 22.9951 103.335 23.2817 102.879 23.5172C102.432 23.7527 101.957 23.9293 101.454 24.0471C100.96 24.1727 100.449 24.2355 99.9233 24.2355C99.0362 24.2355 98.2001 24.0707 97.415 23.7409C96.6378 23.4033 95.9548 22.9441 95.366 22.3631C94.785 21.7821 94.3257 21.1031 93.9881 20.3258C93.6506 19.5486 93.4818 18.7164 93.4818 17.8293C93.4818 16.8636 93.6506 15.9608 93.9881 15.1207C94.3257 14.2807 94.785 13.5506 95.366 12.9304C95.9548 12.3023 96.6378 11.8077 97.415 11.4466C98.2001 11.0854 99.0362 10.9049 99.9233 10.9049C100.449 10.9049 100.964 10.9716 101.466 11.1051C101.976 11.2385 102.459 11.4348 102.914 11.6939C103.378 11.9451 103.802 12.2552 104.186 12.6242C104.579 12.9932 104.916 13.4171 105.199 13.896ZM118.777 17.582C118.777 18.5241 118.608 19.4034 118.271 20.2198C117.933 21.0285 117.474 21.7311 116.893 22.3278C116.312 22.9166 115.629 23.3837 114.844 23.7291C114.067 24.0667 113.23 24.2355 112.335 24.2355C111.448 24.2355 110.612 24.0667 109.827 23.7291C109.05 23.3837 108.367 22.9166 107.778 22.3278C107.197 21.7311 106.738 21.0285 106.4 20.2198C106.063 19.4034 105.894 18.5241 105.894 17.582C105.894 16.6242 106.063 15.737 106.4 14.9206C106.738 14.1041 107.197 13.4014 107.778 12.8126C108.367 12.216 109.05 11.7488 109.827 11.4112C110.612 11.0737 111.448 10.9049 112.335 10.9049C113.23 10.9049 114.067 11.0658 114.844 11.3877C115.629 11.7017 116.312 12.1531 116.893 12.742C117.474 13.3229 117.933 14.0256 118.271 14.8499C118.608 15.6664 118.777 16.5771 118.777 17.582ZM115.539 17.582C115.539 17.0638 115.452 16.5967 115.28 16.1806C115.115 15.7567 114.887 15.3955 114.596 15.0972C114.306 14.791 113.964 14.5594 113.572 14.4024C113.187 14.2375 112.775 14.1551 112.335 14.1551C111.896 14.1551 111.48 14.2375 111.087 14.4024C110.702 14.5594 110.365 14.791 110.074 15.0972C109.792 15.3955 109.568 15.7567 109.403 16.1806C109.238 16.5967 109.156 17.0638 109.156 17.582C109.156 18.0687 109.238 18.5201 109.403 18.9362C109.568 19.3523 109.792 19.7135 110.074 20.0196C110.365 20.3258 110.702 20.5692 111.087 20.7498C111.48 20.9225 111.896 21.0088 112.335 21.0088C112.775 21.0088 113.187 20.9264 113.572 20.7615C113.964 20.5967 114.306 20.3651 114.596 20.0668C114.887 19.7684 115.115 19.4073 115.28 18.9833C115.452 18.5594 115.539 18.0923 115.539 17.582ZM124.347 7.96082C124.347 8.25915 124.288 8.53785 124.171 8.79693C124.061 9.05601 123.908 9.28368 123.711 9.47995C123.515 9.66837 123.283 9.82146 123.016 9.93922C122.757 10.0491 122.479 10.1041 122.18 10.1041C121.882 10.1041 121.599 10.0491 121.332 9.93922C121.073 9.82146 120.846 9.66837 120.649 9.47995C120.461 9.28368 120.308 9.05601 120.19 8.79693C120.08 8.53785 120.025 8.25915 120.025 7.96082C120.025 7.67034 120.08 7.39556 120.19 7.13649C120.308 6.86956 120.461 6.64189 120.649 6.45347C120.846 6.2572 121.073 6.10411 121.332 5.9942C121.599 5.87643 121.882 5.81755 122.18 5.81755C122.479 5.81755 122.757 5.87643 123.016 5.9942C123.283 6.10411 123.515 6.2572 123.711 6.45347C123.908 6.64189 124.061 6.86956 124.171 7.13649C124.288 7.39556 124.347 7.67034 124.347 7.96082ZM123.794 24H120.555V11.3877H123.794V24ZM129.47 24H126.255V11.3877H127.032L128.092 12.6124C128.61 12.1414 129.195 11.7802 129.847 11.529C130.506 11.2699 131.193 11.1404 131.907 11.1404C132.677 11.1404 133.403 11.2896 134.086 11.5879C134.769 11.8784 135.366 12.2827 135.876 12.8008C136.386 13.3111 136.787 13.9117 137.077 14.6026C137.376 15.2856 137.525 16.0157 137.525 16.793V24H134.31V16.793C134.31 16.4632 134.247 16.1531 134.121 15.8626C133.996 15.5643 133.823 15.3052 133.603 15.0854C133.383 14.8656 133.128 14.6929 132.838 14.5673C132.547 14.4417 132.237 14.3788 131.907 14.3788C131.57 14.3788 131.252 14.4417 130.954 14.5673C130.655 14.6929 130.396 14.8656 130.176 15.0854C129.957 15.3052 129.784 15.5643 129.658 15.8626C129.533 16.1531 129.47 16.4632 129.47 16.793V24Z" fill="white"/>
<defs>
<clipPath id="clip0_3363_6480">
<rect width="23.7684" height="29.4118" fill="white"/>
</clipPath>
</defs>
</svg>
