<svg width="24" height="24" viewBox="0 0 24 24" fill="none" xmlns="http://www.w3.org/2000/svg">
<circle cx="12" cy="12" r="11.625" fill="#F8FAFB" stroke="#E2E2E2" stroke-width="0.75"/>
<g clip-path="url(#clip0_2789_10024)">
<path d="M17.4546 12.0505V10.3639C17.4546 9.79197 17.011 9.32687 16.4506 9.28177L14.8843 6.54602C14.7391 6.293 14.5047 6.11216 14.2243 6.03707C13.9452 5.96248 13.6533 6.00165 13.4035 6.14706L8.03416 9.27297H7.09114C6.48951 9.27297 6.00024 9.76221 6.00024 10.3639V16.9092C6.00024 17.5109 6.48948 18.0001 7.09114 18.0001H16.3637C16.9654 18.0001 17.4546 17.5109 17.4546 16.9092V15.2226C17.7714 15.1097 18.0001 14.8098 18.0001 14.4547V12.8184C18.0001 12.4633 17.7714 12.1634 17.4546 12.0505ZM15.8168 9.27297H13.4397L15.2225 8.23502L15.8168 9.27297ZM14.9515 7.76169L12.3556 9.27297H11.2789L14.6823 7.29147L14.9515 7.76169ZM13.678 6.61845C13.8014 6.54627 13.9454 6.5271 14.0831 6.56386C14.2224 6.60114 14.3386 6.69117 14.4107 6.81714L14.4113 6.81814L10.1949 9.27297H9.11823L13.678 6.61845ZM16.9092 16.9092C16.9092 17.2099 16.6644 17.4547 16.3637 17.4547H7.09114C6.79047 17.4547 6.54571 17.2099 6.54571 16.9092V10.3639C6.54571 10.0632 6.79047 9.81844 7.09114 9.81844H16.3637C16.6644 9.81844 16.9092 10.0632 16.9092 10.3639V12.0002H15.2728C14.3705 12.0002 13.6365 12.7342 13.6365 13.6365C13.6365 14.5389 14.3705 15.2729 15.2728 15.2729H16.9092V16.9092V16.9092ZM17.4546 14.4547C17.4546 14.6052 17.3324 14.7274 17.1819 14.7274H15.2728C14.6712 14.7274 14.1819 14.2382 14.1819 13.6365C14.1819 13.0349 14.6712 12.5456 15.2728 12.5456H17.1819C17.3324 12.5456 17.4546 12.6679 17.4546 12.8184V14.4547V14.4547Z" fill="black"/>
<path d="M15.2727 13.0911C14.9721 13.0911 14.7273 13.3358 14.7273 13.6365C14.7273 13.9372 14.9721 14.1819 15.2727 14.1819C15.5734 14.1819 15.8182 13.9372 15.8182 13.6365C15.8182 13.3358 15.5734 13.0911 15.2727 13.0911Z" fill="black"/>
</g>
<defs>
<clipPath id="clip0_2789_10024">
<rect width="12" height="12" fill="white" transform="translate(6 6)"/>
</clipPath>
</defs>
</svg>
