<svg width="24" height="30" viewBox="0 0 24 30" fill="none" xmlns="http://www.w3.org/2000/svg">
<g clipPath="url(#clip0_2909_10240)">
<path d="M15.4006 5.10782C14.5334 5.10755 13.6825 5.34366 12.9393 5.7908C12.1961 6.23794 11.5887 6.87923 11.1822 7.64579L11.2128 7.73342L11.1148 7.95158C10.9243 8.37584 10.7978 8.82607 10.7394 9.28752C10.736 9.31234 10.733 9.33685 10.7302 9.36167C12.1327 9.45682 13.4636 10.0164 14.5131 10.9522C15.5625 11.8879 16.2709 13.1467 16.5265 14.5299C16.5507 14.524 16.5746 14.5179 16.5984 14.5115C17.7233 14.22 18.7033 13.528 19.3548 12.5653C20.0064 11.6026 20.2848 10.4352 20.1379 9.28177C19.991 8.12837 19.4288 7.06815 18.5567 6.29978C17.6847 5.53141 16.5625 5.10762 15.4006 5.10782ZM10.6803 0.569301C9.63313 1.40487 9.12577 3.07051 9.5823 4.48826C9.69993 4.85683 9.88357 5.2009 10.1243 5.50369C10.1512 5.48224 10.1775 5.46049 10.2036 5.43843C11.6583 4.19779 11.7091 1.86081 10.6803 0.569301ZM8.25066 7.3688C6.81737 6.31016 4.67553 6.60676 3.59467 7.73894C4.77076 8.86284 7.05069 9.03259 8.42274 7.7561C8.46806 7.71422 8.51236 7.67051 8.55563 7.62495C8.45955 7.53314 8.35768 7.44758 8.25066 7.3688ZM10.6803 0.569301C9.63313 1.40487 9.12577 3.07051 9.5823 4.48826C9.69993 4.85683 9.88357 5.2009 10.1243 5.50369C10.1512 5.48224 10.1775 5.46049 10.2036 5.43843C11.6583 4.19779 11.7091 1.86081 10.6803 0.569301ZM8.25066 7.3688C6.81737 6.31016 4.67553 6.60676 3.59467 7.73894C4.77076 8.86284 7.05069 9.03259 8.42274 7.7561C8.46806 7.71422 8.51236 7.67051 8.55563 7.62495C8.45955 7.53314 8.35768 7.44758 8.25066 7.3688ZM10.6803 0.569301C9.63313 1.40487 9.12577 3.07051 9.5823 4.48826C9.69993 4.85683 9.88357 5.2009 10.1243 5.50369C10.1512 5.48224 10.1775 5.46049 10.2036 5.43843C11.6583 4.19779 11.7091 1.86081 10.6803 0.569301ZM8.25066 7.3688C6.81737 6.31016 4.67553 6.60676 3.59467 7.73894C4.77076 8.86284 7.05069 9.03259 8.42274 7.7561C8.46806 7.71422 8.51236 7.67051 8.55563 7.62495C8.45955 7.53314 8.35768 7.44758 8.25066 7.3688ZM10.6803 0.569301C9.63313 1.40487 9.12577 3.07051 9.5823 4.48826C9.69993 4.85683 9.88357 5.2009 10.1243 5.50369C10.1512 5.48224 10.1775 5.46049 10.2036 5.43843C11.6583 4.19779 11.7091 1.86081 10.6803 0.569301ZM8.25066 7.3688C6.81737 6.31016 4.67553 6.60676 3.59467 7.73894C4.77076 8.86284 7.05069 9.03259 8.42274 7.7561C8.46806 7.71422 8.51236 7.67051 8.55563 7.62495C8.45955 7.53314 8.35768 7.44758 8.25066 7.3688ZM10.6803 0.569301C9.63313 1.40487 9.12577 3.07051 9.5823 4.48826C9.69993 4.85683 9.88357 5.2009 10.1243 5.50369C10.1512 5.48224 10.1775 5.46049 10.2036 5.43843C11.6583 4.19779 11.7091 1.86081 10.6803 0.569301ZM15.4006 5.10782C14.2384 5.10706 13.1158 5.53086 12.2437 6.29966C11.3716 7.06845 10.8099 8.12938 10.6641 9.28323C10.6607 9.30775 10.658 9.33226 10.6552 9.35708C10.6797 9.35708 10.7045 9.35983 10.729 9.36167C12.1314 9.45682 13.4623 10.0164 14.5118 10.9522C15.5613 11.8879 16.2697 13.1467 16.5253 14.5299C16.5495 14.524 16.5733 14.5179 16.5972 14.5115C17.7219 14.22 18.7019 13.5282 19.3534 12.5656C20.005 11.603 20.2835 10.4357 20.1367 9.28237C19.99 8.12906 19.428 7.06886 18.5562 6.30039C17.6844 5.53192 16.5624 5.10792 15.4006 5.10782ZM10.5208 7.60075C10.3664 7.15205 10.1822 6.71414 9.96964 6.28993C9.7031 5.75888 9.3892 5.253 9.03177 4.77843C8.46163 4.02221 7.75555 3.32942 6.89698 2.79168C6.73969 2.69531 6.55074 2.66495 6.37121 2.70721C6.19168 2.74947 6.03607 2.86093 5.9382 3.01736C5.84034 3.17379 5.80812 3.36255 5.84855 3.54262C5.88899 3.72269 5.99881 3.87951 6.15415 3.97901C7.34218 4.72296 8.18759 5.8481 8.74486 6.97721C8.89318 7.27708 9.02494 7.58486 9.13955 7.89919C9.31058 8.35996 9.4404 8.83503 9.52749 9.31878C9.53209 9.34329 9.53607 9.3678 9.54005 9.392C9.70417 9.37239 9.87074 9.35892 10.0385 9.35187L10.1132 9.34942L10.1188 9.29764L10.1215 9.27465C10.1836 8.73064 10.3293 8.19949 10.5536 7.70002C10.5425 7.66754 10.5321 7.63353 10.5196 7.60075H10.5208ZM8.25189 7.3688C6.81859 6.31016 4.67676 6.60676 3.59589 7.73894C4.77199 8.86284 7.05191 9.03259 8.42397 7.7561C8.46929 7.71422 8.51358 7.67051 8.55686 7.62495C8.46038 7.5331 8.3581 7.44754 8.25066 7.3688H8.25189ZM10.6815 0.569301C9.63436 1.40487 9.12699 3.07051 9.58353 4.48826C9.70115 4.85683 9.8848 5.2009 10.1255 5.50369C10.1524 5.48224 10.1788 5.46049 10.2048 5.43843C11.6583 4.19779 11.7091 1.86081 10.6803 0.569301H10.6815ZM10.5208 7.60075C10.3664 7.15205 10.1822 6.71414 9.96964 6.28993C9.7031 5.75888 9.3892 5.253 9.03177 4.77843C8.46163 4.02221 7.75555 3.32942 6.89698 2.79168C6.73969 2.69531 6.55074 2.66495 6.37121 2.70721C6.19168 2.74947 6.03607 2.86093 5.9382 3.01736C5.84034 3.17379 5.80812 3.36255 5.84855 3.54262C5.88899 3.72269 5.99881 3.87951 6.15415 3.97901C7.34218 4.72296 8.18759 5.8481 8.74486 6.97721C8.89318 7.27708 9.02494 7.58486 9.13955 7.89919C9.31058 8.35996 9.4404 8.83503 9.52749 9.31878C9.53209 9.34329 9.53607 9.3678 9.54005 9.392C9.70417 9.37239 9.87074 9.35892 10.0385 9.35187L10.1132 9.34942L10.1188 9.29764L10.1215 9.27465C10.1836 8.73064 10.3293 8.19949 10.5536 7.70002C10.5425 7.66754 10.5321 7.63353 10.5196 7.60075H10.5208ZM15.4006 5.10782C14.2384 5.10706 13.1158 5.53086 12.2437 6.29966C11.3716 7.06845 10.8099 8.12938 10.6641 9.28323C10.6607 9.30775 10.658 9.33226 10.6552 9.35708C10.6797 9.35708 10.7045 9.35983 10.729 9.36167C12.1314 9.45682 13.4623 10.0164 14.5118 10.9522C15.5613 11.8879 16.2697 13.1467 16.5253 14.5299C16.5495 14.524 16.5733 14.5179 16.5972 14.5115C17.7219 14.22 18.7019 13.5282 19.3534 12.5656C20.005 11.603 20.2835 10.4357 20.1367 9.28237C19.99 8.12906 19.428 7.06886 18.5562 6.30039C17.6844 5.53192 16.5624 5.10792 15.4006 5.10782ZM8.25189 7.3688C6.81859 6.31016 4.67676 6.60676 3.59589 7.73894C4.77199 8.86284 7.05191 9.03259 8.42397 7.7561C8.46929 7.71422 8.51358 7.67051 8.55686 7.62495C8.46038 7.5331 8.3581 7.44754 8.25066 7.3688H8.25189ZM10.6815 0.569301C9.63436 1.40487 9.12699 3.07051 9.58353 4.48826C9.70115 4.85683 9.8848 5.2009 10.1255 5.50369C10.1524 5.48224 10.1788 5.46049 10.2048 5.43843C11.6583 4.19779 11.7091 1.86081 10.6803 0.569301H10.6815ZM10.5208 7.60075C10.3664 7.15205 10.1822 6.71414 9.96964 6.28993C9.7031 5.75888 9.3892 5.253 9.03177 4.77843C8.46163 4.02221 7.75555 3.32942 6.89698 2.79168C6.73969 2.69531 6.55074 2.66495 6.37121 2.70721C6.19168 2.74947 6.03607 2.86093 5.9382 3.01736C5.84034 3.17379 5.80812 3.36255 5.84855 3.54262C5.88899 3.72269 5.99881 3.87951 6.15415 3.97901C7.34218 4.72296 8.18759 5.8481 8.74486 6.97721C8.89318 7.27708 9.02494 7.58486 9.13955 7.89919C9.31058 8.35996 9.4404 8.83503 9.52749 9.31878C9.53209 9.34329 9.53607 9.3678 9.54005 9.392C9.70417 9.37239 9.87074 9.35892 10.0385 9.35187L10.1132 9.34942L10.1188 9.29764L10.1215 9.27465C10.1836 8.73064 10.3293 8.19949 10.5536 7.70002C10.5425 7.66754 10.5321 7.63353 10.5196 7.60075H10.5208ZM16.0614 15.0875C15.7766 12.2866 13.4995 10.0753 10.6702 9.89727C10.5477 9.88971 10.4246 9.88583 10.3009 9.88563C10.1932 9.88563 10.0862 9.88859 9.98005 9.89452C9.65816 9.91196 9.33829 9.95635 9.0238 10.0272C6.44044 10.6094 4.5105 12.9191 4.5105 15.6801C4.50982 16.5903 4.72369 17.4877 5.13474 18.2997C5.54578 19.1116 6.14241 19.815 6.87615 20.3528L6.93739 20.3969C7.55344 19.6742 8.40941 19.1981 9.34807 19.0561L9.35786 18.9786C9.38267 18.9749 9.40777 18.9712 9.43319 18.9685C9.7207 16.6091 11.7342 14.7762 14.1679 14.7762C14.8027 14.7755 15.4312 14.9023 16.0161 15.1491L16.0693 15.1721C16.0657 15.1439 16.0629 15.1157 16.0602 15.0875H16.0614ZM15.4006 5.10782C14.2384 5.10706 13.1158 5.53086 12.2437 6.29966C11.3716 7.06845 10.8099 8.12938 10.6641 9.28323C10.6607 9.30775 10.658 9.33226 10.6552 9.35708C10.6797 9.35708 10.7045 9.35983 10.729 9.36167C12.1314 9.45682 13.4623 10.0164 14.5118 10.9522C15.5613 11.8879 16.2697 13.1467 16.5253 14.5299C16.5495 14.524 16.5733 14.5179 16.5972 14.5115C17.7219 14.22 18.7019 13.5282 19.3534 12.5656C20.005 11.603 20.2835 10.4357 20.1367 9.28237C19.99 8.12906 19.428 7.06886 18.5562 6.30039C17.6844 5.53192 16.5624 5.10792 15.4006 5.10782ZM8.25189 7.3688C6.81859 6.31016 4.67676 6.60676 3.59589 7.73894C4.77199 8.86284 7.05191 9.03259 8.42397 7.7561C8.46929 7.71422 8.51358 7.67051 8.55686 7.62495C8.46038 7.5331 8.3581 7.44754 8.25066 7.3688H8.25189ZM10.6815 0.569301C9.63436 1.40487 9.12699 3.07051 9.58353 4.48826C9.70115 4.85683 9.8848 5.2009 10.1255 5.50369C10.1524 5.48224 10.1788 5.46049 10.2048 5.43843C11.6583 4.19779 11.7091 1.86081 10.6803 0.569301H10.6815ZM10.5208 7.60075C10.3664 7.15205 10.1822 6.71414 9.96964 6.28993C9.7031 5.75888 9.3892 5.253 9.03177 4.77843C8.46163 4.02221 7.75555 3.32942 6.89698 2.79168C6.73969 2.69531 6.55074 2.66495 6.37121 2.70721C6.19168 2.74947 6.03607 2.86093 5.9382 3.01736C5.84034 3.17379 5.80812 3.36255 5.84855 3.54262C5.88899 3.72269 5.99881 3.87951 6.15415 3.97901C7.34218 4.72296 8.18759 5.8481 8.74486 6.97721C8.89318 7.27708 9.02494 7.58486 9.13955 7.89919C9.31058 8.35996 9.4404 8.83503 9.52749 9.31878C9.53209 9.34329 9.53607 9.3678 9.54005 9.392C9.70417 9.37239 9.87074 9.35892 10.0385 9.35187L10.1132 9.34942L10.1188 9.29764L10.1215 9.27465C10.1836 8.73064 10.3293 8.19949 10.5536 7.70002C10.5425 7.66754 10.5321 7.63353 10.5196 7.60075H10.5208ZM16.0614 15.0875C15.7766 12.2866 13.4995 10.0753 10.6702 9.89727C10.5477 9.88971 10.4246 9.88583 10.3009 9.88563C10.1932 9.88563 10.0862 9.88859 9.98005 9.89452C9.65816 9.91196 9.33829 9.95635 9.0238 10.0272C6.44044 10.6094 4.5105 12.9191 4.5105 15.6801C4.50982 16.5903 4.72369 17.4877 5.13474 18.2997C5.54578 19.1116 6.14241 19.815 6.87615 20.3528L6.93739 20.3969C7.55344 19.6742 8.40941 19.1981 9.34807 19.0561C9.37317 19.0521 9.39889 19.0488 9.42431 19.0454C9.42706 19.0196 9.42982 18.9939 9.43319 18.9685C9.7207 16.6091 11.7342 14.7762 14.1679 14.7762C14.8027 14.7755 15.4312 14.9023 16.0161 15.1491L16.0693 15.1721C16.0657 15.1439 16.0629 15.1157 16.0602 15.0875H16.0614ZM15.4006 5.10782C14.2384 5.10706 13.1158 5.53086 12.2437 6.29966C11.3716 7.06845 10.8099 8.12938 10.6641 9.28323C10.6607 9.30775 10.658 9.33226 10.6552 9.35708C10.6797 9.35708 10.7045 9.35983 10.729 9.36167C12.1314 9.45682 13.4623 10.0164 14.5118 10.9522C15.5613 11.8879 16.2697 13.1467 16.5253 14.5299C16.5495 14.524 16.5733 14.5179 16.5972 14.5115C17.7219 14.22 18.7019 13.5282 19.3534 12.5656C20.005 11.603 20.2835 10.4357 20.1367 9.28237C19.99 8.12906 19.428 7.06886 18.5562 6.30039C17.6844 5.53192 16.5624 5.10792 15.4006 5.10782ZM11.8855 0C11.5997 0 11.3162 0.0102136 11.0349 0.0306408L11.1601 0.187518C11.7753 0.959359 12.0744 2.02964 11.9807 3.12352C11.8809 4.28787 11.3576 5.30452 10.5073 5.98322L10.5018 5.98751C10.6653 6.31077 10.8013 6.61933 10.9139 6.90153C11.406 6.16173 12.073 5.55497 12.8557 5.13515C13.6384 4.71533 14.5126 4.49544 15.4006 4.495C18.3707 4.495 20.7875 6.91317 20.7875 9.88563C20.7873 11.0927 20.3824 12.2648 19.6376 13.2143C18.8928 14.1638 17.8512 14.8358 16.6796 15.1227L16.7056 15.4221C17.7517 16.0652 18.5145 17.082 18.8397 18.2667C19.1648 19.4514 19.0279 20.7155 18.4567 21.8031C21.6592 19.6726 23.7698 16.0291 23.7698 11.8923C23.7686 5.32444 18.4479 0 11.8843 0H11.8855ZM15.4006 5.10782C14.2384 5.10706 13.1158 5.53086 12.2437 6.29966C11.3716 7.06845 10.8099 8.12938 10.6641 9.28323C10.6607 9.30775 10.658 9.33226 10.6552 9.35708C10.6797 9.35708 10.7045 9.35983 10.729 9.36167C12.1314 9.45682 13.4623 10.0164 14.5118 10.9522C15.5613 11.8879 16.2697 13.1467 16.5253 14.5299C16.5495 14.524 16.5733 14.5179 16.5972 14.5115C17.7219 14.22 18.7019 13.5282 19.3534 12.5656C20.005 11.603 20.2835 10.4357 20.1367 9.28237C19.99 8.12906 19.428 7.06886 18.5562 6.30039C17.6844 5.53192 16.5624 5.10792 15.4006 5.10782ZM16.0614 15.0875C15.7766 12.2866 13.4995 10.0753 10.6702 9.89727C10.5477 9.88971 10.4246 9.88583 10.3009 9.88563C10.1932 9.88563 10.0862 9.88859 9.98005 9.89452C9.65816 9.91196 9.33829 9.95635 9.0238 10.0272C6.44044 10.6094 4.5105 12.9191 4.5105 15.6801C4.50982 16.5903 4.72369 17.4877 5.13474 18.2997C5.54578 19.1116 6.14241 19.815 6.87615 20.3528L6.93739 20.3969C7.55344 19.6742 8.40941 19.1981 9.34807 19.0561C9.37317 19.0521 9.39889 19.0488 9.42431 19.0454C9.42706 19.0196 9.42982 18.9939 9.43319 18.9685C9.7207 16.6091 11.7342 14.7762 14.1679 14.7762C14.8027 14.7755 15.4312 14.9023 16.0161 15.1491L16.0693 15.1721C16.0657 15.1439 16.0629 15.1157 16.0602 15.0875H16.0614ZM10.5196 7.60075C10.3651 7.15205 10.181 6.71414 9.96842 6.28993C9.70227 5.75893 9.38878 5.25304 9.03177 4.77843C8.46163 4.02221 7.75555 3.32942 6.89698 2.79168C6.73969 2.69531 6.55074 2.66495 6.37121 2.70721C6.19168 2.74947 6.03607 2.86093 5.9382 3.01736C5.84034 3.17379 5.80812 3.36255 5.84855 3.54262C5.88899 3.72269 5.99881 3.87951 6.15415 3.97901C7.34218 4.72296 8.18759 5.8481 8.74486 6.97721C8.89318 7.27708 9.02494 7.58486 9.13955 7.89919C9.31058 8.35996 9.4404 8.83503 9.52749 9.31878C9.53209 9.34329 9.53607 9.3678 9.54005 9.392C9.70417 9.37239 9.87074 9.35892 10.0385 9.35187L10.1132 9.34942L10.1188 9.29764L10.1215 9.27465C10.1836 8.73064 10.3293 8.19949 10.5536 7.70002C10.5425 7.66754 10.5321 7.63353 10.5196 7.60075ZM10.6803 0.569301C9.63313 1.40487 9.12577 3.07051 9.5823 4.48826C9.69993 4.85683 9.88357 5.2009 10.1243 5.50369C10.1512 5.48224 10.1775 5.46049 10.2036 5.43843C11.6583 4.19779 11.7091 1.86081 10.6803 0.569301ZM8.25066 7.3688C6.81737 6.31016 4.67553 6.60676 3.59467 7.73894C4.77076 8.86284 7.05069 9.03259 8.42274 7.7561C8.46806 7.71422 8.51236 7.67051 8.55563 7.62495C8.45955 7.53314 8.35768 7.44758 8.25066 7.3688ZM15.4006 5.10782C14.2384 5.10706 13.1158 5.53086 12.2437 6.29966C11.3716 7.06845 10.8099 8.12938 10.6641 9.28323C10.6607 9.30775 10.658 9.33226 10.6552 9.35708C10.6797 9.35708 10.7045 9.35983 10.729 9.36167C12.1314 9.45682 13.4623 10.0164 14.5118 10.9522C15.5613 11.8879 16.2697 13.1467 16.5253 14.5299C16.5495 14.524 16.5733 14.5179 16.5972 14.5115C17.7219 14.22 18.7019 13.5282 19.3534 12.5656C20.005 11.603 20.2835 10.4357 20.1367 9.28237C19.99 8.12906 19.428 7.06886 18.5562 6.30039C17.6844 5.53192 16.5624 5.10792 15.4006 5.10782ZM16.0614 15.0875C15.7766 12.2866 13.4995 10.0753 10.6702 9.89727C10.5477 9.88971 10.4246 9.88583 10.3009 9.88563C10.1932 9.88563 10.0862 9.88859 9.98005 9.89452C9.65816 9.91196 9.33829 9.95635 9.0238 10.0272C6.44044 10.6094 4.5105 12.9191 4.5105 15.6801C4.50982 16.5903 4.72369 17.4877 5.13474 18.2997C5.54578 19.1116 6.14241 19.815 6.87615 20.3528L6.93739 20.3969C7.55344 19.6742 8.40941 19.1981 9.34807 19.0561C9.37317 19.0521 9.39889 19.0488 9.42431 19.0454C9.42706 19.0196 9.42982 18.9939 9.43319 18.9685C9.7207 16.6091 11.7342 14.7762 14.1679 14.7762C14.8027 14.7755 15.4312 14.9023 16.0161 15.1491L16.0693 15.1721C16.0657 15.1439 16.0629 15.1157 16.0602 15.0875H16.0614ZM10.5196 7.60075C10.3651 7.15205 10.181 6.71414 9.96842 6.28993C9.70227 5.75893 9.38878 5.25304 9.03177 4.77843C8.46163 4.02221 7.75555 3.32942 6.89698 2.79168C6.73969 2.69531 6.55074 2.66495 6.37121 2.70721C6.19168 2.74947 6.03607 2.86093 5.9382 3.01736C5.84034 3.17379 5.80812 3.36255 5.84855 3.54262C5.88899 3.72269 5.99881 3.87951 6.15415 3.97901C7.34218 4.72296 8.18759 5.8481 8.74486 6.97721C8.89318 7.27708 9.02494 7.58486 9.13955 7.89919C9.31058 8.35996 9.4404 8.83503 9.52749 9.31878C9.53209 9.34329 9.53607 9.3678 9.54005 9.392C9.70417 9.37239 9.87074 9.35892 10.0385 9.35187L10.1132 9.34942L10.1188 9.29764L10.1215 9.27465C10.1836 8.73064 10.3293 8.19949 10.5536 7.70002C10.5425 7.66754 10.5321 7.63353 10.5196 7.60075ZM10.6803 0.569301C9.63313 1.40487 9.12577 3.07051 9.5823 4.48826C9.69993 4.85683 9.88357 5.2009 10.1243 5.50369C10.1512 5.48224 10.1775 5.46049 10.2036 5.43843C11.6583 4.19779 11.7091 1.86081 10.6803 0.569301ZM8.25066 7.3688C6.81737 6.31016 4.67553 6.60676 3.59467 7.73894C4.77076 8.86284 7.05069 9.03259 8.42274 7.7561C8.46806 7.71422 8.51236 7.67051 8.55563 7.62495C8.45955 7.53314 8.35768 7.44758 8.25066 7.3688ZM15.4006 5.10782C14.2384 5.10706 13.1158 5.53086 12.2437 6.29966C11.3716 7.06845 10.8099 8.12938 10.6641 9.28323C10.6607 9.30775 10.658 9.33226 10.6552 9.35708C10.6797 9.35708 10.7045 9.35983 10.729 9.36167C12.1314 9.45682 13.4623 10.0164 14.5118 10.9522C15.5613 11.8879 16.2697 13.1467 16.5253 14.5299C16.5495 14.524 16.5733 14.5179 16.5972 14.5115C17.7219 14.22 18.7019 13.5282 19.3534 12.5656C20.005 11.603 20.2835 10.4357 20.1367 9.28237C19.99 8.12906 19.428 7.06886 18.5562 6.30039C17.6844 5.53192 16.5624 5.10792 15.4006 5.10782ZM16.0614 15.0875C15.7766 12.2866 13.4995 10.0753 10.6702 9.89727C10.5477 9.88971 10.4246 9.88583 10.3009 9.88563C10.1932 9.88563 10.0862 9.88859 9.98005 9.89452C9.65816 9.91196 9.33829 9.95635 9.0238 10.0272C6.44044 10.6094 4.5105 12.9191 4.5105 15.6801C4.50982 16.5903 4.72369 17.4877 5.13474 18.2997C5.54578 19.1116 6.14241 19.815 6.87615 20.3528C7.50894 19.6081 8.39119 19.1195 9.35786 18.9786C9.38267 18.9749 9.40777 18.9712 9.43319 18.9685C9.7207 16.6091 11.7342 14.7762 14.1679 14.7762C14.8027 14.7755 15.4312 14.9023 16.0161 15.1491L16.0693 15.1721C16.0657 15.1439 16.0629 15.1157 16.0602 15.0875H16.0614ZM10.5196 7.60075C10.3651 7.15205 10.181 6.71414 9.96842 6.28993C9.70227 5.75893 9.38878 5.25304 9.03177 4.77843C8.46163 4.02221 7.75555 3.32942 6.89698 2.79168C6.73969 2.69531 6.55074 2.66495 6.37121 2.70721C6.19168 2.74947 6.03607 2.86093 5.9382 3.01736C5.84034 3.17379 5.80812 3.36255 5.84855 3.54262C5.88899 3.72269 5.99881 3.87951 6.15415 3.97901C7.34218 4.72296 8.18759 5.8481 8.74486 6.97721C8.89318 7.27708 9.02494 7.58486 9.13955 7.89919C9.31058 8.35996 9.4404 8.83503 9.52749 9.31878C9.53209 9.34329 9.53607 9.3678 9.54005 9.392C9.70417 9.37239 9.87074 9.35892 10.0385 9.35187L10.1132 9.34942L10.1188 9.29764L10.1215 9.27465C10.1836 8.73064 10.3293 8.19949 10.5536 7.70002C10.5425 7.66754 10.5321 7.63353 10.5196 7.60075ZM10.6803 0.569301C9.63313 1.40487 9.12577 3.07051 9.5823 4.48826C9.69993 4.85683 9.88357 5.2009 10.1243 5.50369C10.1512 5.48224 10.1775 5.46049 10.2036 5.43843C11.6583 4.19779 11.7091 1.86081 10.6803 0.569301ZM8.25066 7.3688C6.81737 6.31016 4.67553 6.60676 3.59467 7.73894C4.77076 8.86284 7.05069 9.03259 8.42274 7.7561C8.46806 7.71422 8.51236 7.67051 8.55563 7.62495C8.45955 7.53314 8.35768 7.44758 8.25066 7.3688ZM15.4006 5.10782C14.2384 5.10706 13.1158 5.53086 12.2437 6.29966C11.3716 7.06845 10.8099 8.12938 10.6641 9.28323C10.6607 9.30775 10.658 9.33226 10.6552 9.35708C10.6797 9.35708 10.7045 9.35983 10.729 9.36167C12.1314 9.45682 13.4623 10.0164 14.5118 10.9522C15.5613 11.8879 16.2697 13.1467 16.5253 14.5299C16.5495 14.524 16.5733 14.5179 16.5972 14.5115C17.7219 14.22 18.7019 13.5282 19.3534 12.5656C20.005 11.603 20.2835 10.4357 20.1367 9.28237C19.99 8.12906 19.428 7.06886 18.5562 6.30039C17.6844 5.53192 16.5624 5.10792 15.4006 5.10782ZM10.5208 7.60075C10.3664 7.15205 10.1822 6.71414 9.96964 6.28993C9.7031 5.75888 9.3892 5.253 9.03177 4.77843C8.46163 4.02221 7.75555 3.32942 6.89698 2.79168C6.73969 2.69531 6.55074 2.66495 6.37121 2.70721C6.19168 2.74947 6.03607 2.86093 5.9382 3.01736C5.84034 3.17379 5.80812 3.36255 5.84855 3.54262C5.88899 3.72269 5.99881 3.87951 6.15415 3.97901C7.34218 4.72296 8.18759 5.8481 8.74486 6.97721C8.89318 7.27708 9.02494 7.58486 9.13955 7.89919C9.31058 8.35996 9.4404 8.83503 9.52749 9.31878C9.53209 9.34329 9.53607 9.3678 9.54005 9.392C9.70417 9.37239 9.87074 9.35892 10.0385 9.35187L10.1132 9.34942L10.1188 9.29764L10.1215 9.27465C10.1836 8.73064 10.3293 8.19949 10.5536 7.70002C10.5425 7.66754 10.5321 7.63353 10.5196 7.60075H10.5208ZM10.6815 0.569301C9.63436 1.40487 9.12699 3.07051 9.58353 4.48826C9.70115 4.85683 9.8848 5.2009 10.1255 5.50369C10.1524 5.48224 10.1788 5.46049 10.2048 5.43843C11.6583 4.19779 11.7091 1.86081 10.6803 0.569301H10.6815ZM8.25189 7.3688C6.81859 6.31016 4.67676 6.60676 3.59589 7.73894C4.77199 8.86284 7.05191 9.03259 8.42397 7.7561C8.46929 7.71422 8.51358 7.67051 8.55686 7.62495C8.46038 7.5331 8.3581 7.44754 8.25066 7.3688H8.25189ZM15.4006 5.10782C14.2384 5.10706 13.1158 5.53086 12.2437 6.29966C11.3716 7.06845 10.8099 8.12938 10.6641 9.28323C10.6607 9.30775 10.658 9.33226 10.6552 9.35708C10.6797 9.35708 10.7045 9.35983 10.729 9.36167C12.1314 9.45682 13.4623 10.0164 14.5118 10.9522C15.5613 11.8879 16.2697 13.1467 16.5253 14.5299C16.5495 14.524 16.5733 14.5179 16.5972 14.5115C17.7219 14.22 18.7019 13.5282 19.3534 12.5656C20.005 11.603 20.2835 10.4357 20.1367 9.28237C19.99 8.12906 19.428 7.06886 18.5562 6.30039C17.6844 5.53192 16.5624 5.10792 15.4006 5.10782ZM16.0614 15.0875C15.7766 12.2866 13.4995 10.0753 10.6702 9.89727C10.5477 9.88971 10.4246 9.88583 10.3009 9.88563C10.1932 9.88563 10.0862 9.88859 9.98005 9.89452C9.65816 9.91196 9.33829 9.95635 9.0238 10.0272C6.44044 10.6094 4.5105 12.9191 4.5105 15.6801C4.50982 16.5903 4.72369 17.4877 5.13474 18.2997C5.54578 19.1116 6.14241 19.815 6.87615 20.3528L6.93739 20.3969C7.55344 19.6742 8.40941 19.1981 9.34807 19.0561C9.37317 19.0521 9.39889 19.0488 9.42431 19.0454C9.42706 19.0196 9.42982 18.9939 9.43319 18.9685C9.7207 16.6091 11.7342 14.7762 14.1679 14.7762C14.8027 14.7755 15.4312 14.9023 16.0161 15.1491L16.0693 15.1721C16.0657 15.1439 16.0629 15.1157 16.0602 15.0875H16.0614ZM16.5562 16.053C15.9634 15.6476 15.2772 15.3998 14.5622 15.3329C13.8473 15.266 13.1271 15.3823 12.4695 15.6708C11.8118 15.9593 11.2383 16.4105 10.803 16.9819C10.3677 17.5533 10.0848 18.2262 9.98097 18.9372C9.97699 18.962 9.97362 18.9869 9.97056 19.012H10.0444C12.1706 19.0702 13.8822 20.8198 13.8822 22.9591C13.8822 23.1826 13.8632 23.4057 13.8252 23.6259C13.851 23.6219 13.8767 23.6176 13.9024 23.6127C15.0286 23.4204 16.1209 23.0653 17.145 22.5584C17.5883 22.1191 17.9291 21.5872 18.143 21.0008C18.3569 20.4143 18.4386 19.7878 18.3822 19.1661C18.3259 18.5444 18.133 17.9428 17.8172 17.4044C17.5014 16.866 17.0706 16.4041 16.5556 16.0518L16.5562 16.053ZM10.2764 0.108155C4.47345 0.892559 -0.000976562 5.87016 -0.000976562 11.8926C-0.000976562 16.3113 2.40694 20.1671 5.98145 22.2185C6.07265 21.733 6.25287 21.2685 6.51301 20.8486C5.70126 20.2541 5.04115 19.4763 4.58636 18.5784C4.13157 17.6805 3.89492 16.688 3.89566 15.6813C3.89566 12.6209 6.05127 10.0548 8.92276 9.42295C8.85753 9.0657 8.76655 8.71364 8.65055 8.36952C7.94049 8.94864 7.02772 9.26301 6.03779 9.26301C4.93366 9.26301 3.88892 8.86927 3.17089 8.18323L2.72814 7.76008L3.15283 7.31549C3.87912 6.55467 5.00867 6.10057 6.17497 6.10057C6.69429 6.09891 7.20953 6.19237 7.69523 6.37634C7.22736 5.66364 6.61466 4.99077 5.83111 4.4999C5.5358 4.31523 5.32589 4.02073 5.24757 3.68118C5.16924 3.34163 5.22892 2.98485 5.41346 2.68933C5.59801 2.39382 5.89231 2.18377 6.23162 2.10539C6.57093 2.02701 6.92745 2.08672 7.22277 2.2714C7.80082 2.63495 8.33189 3.06842 8.80396 3.56199C8.79426 3.29686 8.80809 3.03138 8.84529 2.7687C8.99594 1.6929 9.51709 0.724341 10.2764 0.108155ZM9.98556 19.5503C9.96872 19.5503 9.95188 19.5503 9.93473 19.5503C9.10615 19.55 8.30585 19.8519 7.68359 20.3994C7.06134 20.9469 6.65977 21.7026 6.55404 22.525C8.20781 23.3565 10.0335 23.7883 11.8843 23.7855C12.3183 23.7856 12.752 23.7621 13.1835 23.715C13.2092 23.7126 13.2346 23.7095 13.2603 23.7068C13.3712 23.212 13.3705 22.6987 13.2581 22.2042C13.1458 21.7097 12.9246 21.2466 12.6107 20.8484C12.2969 20.4503 11.8982 20.1273 11.4438 19.9028C10.9894 19.6784 10.4907 19.5582 9.98403 19.551L9.98556 19.5503ZM10.5196 7.60044C10.3651 7.15174 10.181 6.71383 9.96842 6.28963C9.70225 5.75873 9.38877 5.25295 9.03177 4.77843C8.46163 4.02221 7.75555 3.32942 6.89698 2.79168C6.73969 2.69531 6.55074 2.66495 6.37121 2.70721C6.19168 2.74947 6.03607 2.86093 5.9382 3.01736C5.84034 3.17379 5.80812 3.36255 5.84855 3.54262C5.88899 3.72269 5.99881 3.87951 6.15415 3.97901C7.34218 4.72296 8.18759 5.8481 8.74486 6.97721C8.89318 7.27708 9.02494 7.58486 9.13955 7.89919C9.31058 8.35996 9.4404 8.83503 9.52749 9.31878C9.53209 9.34329 9.53607 9.3678 9.54005 9.392C9.70417 9.37239 9.87074 9.35892 10.0385 9.35187L10.1132 9.34942L10.1188 9.29764L10.1215 9.27465C10.1836 8.73064 10.3293 8.19949 10.5536 7.70002C10.5425 7.66754 10.5321 7.63353 10.5196 7.60075V7.60044ZM10.6803 0.568994C9.63313 1.40457 9.12577 3.0702 9.5823 4.48795C9.69993 4.85652 9.88357 5.2006 10.1243 5.50339C10.1512 5.48194 10.1775 5.46019 10.2036 5.43812C11.6583 4.19779 11.7091 1.86081 10.6803 0.569301V0.568994ZM8.25066 7.36849C6.81737 6.30985 4.67553 6.60645 3.59467 7.73863C4.77076 8.86253 7.05069 9.03228 8.42274 7.75579C8.46806 7.71391 8.51236 7.6702 8.55563 7.62465C8.45954 7.53294 8.35767 7.44748 8.25066 7.3688V7.36849ZM10.6803 0.568994C9.63313 1.40457 9.12577 3.0702 9.5823 4.48795C9.69993 4.85652 9.88357 5.2006 10.1243 5.50339C10.1512 5.48194 10.1775 5.46019 10.2036 5.43812C11.6583 4.19779 11.7091 1.86081 10.6803 0.569301V0.568994ZM8.25066 7.36849C6.81737 6.30985 4.67553 6.60645 3.59467 7.73863C4.77076 8.86253 7.05069 9.03228 8.42274 7.75579C8.46806 7.71391 8.51236 7.6702 8.55563 7.62465C8.45954 7.53294 8.35767 7.44748 8.25066 7.3688V7.36849ZM10.6803 0.568994C9.63313 1.40457 9.12577 3.0702 9.5823 4.48795C9.69993 4.85652 9.88357 5.2006 10.1243 5.50339C10.1512 5.48194 10.1775 5.46019 10.2036 5.43812C11.6583 4.19779 11.7091 1.86081 10.6803 0.569301V0.568994ZM8.25066 7.36849C6.81737 6.30985 4.67553 6.60645 3.59467 7.73863C4.77076 8.86253 7.05069 9.03228 8.42274 7.75579C8.46806 7.71391 8.51236 7.6702 8.55563 7.62465C8.45954 7.53294 8.35767 7.44748 8.25066 7.3688V7.36849ZM10.6803 0.568994C9.63313 1.40457 9.12577 3.0702 9.5823 4.48795C9.69993 4.85652 9.88357 5.2006 10.1243 5.50339C10.1512 5.48194 10.1775 5.46019 10.2036 5.43812C11.6583 4.19779 11.7091 1.86081 10.6803 0.569301V0.568994ZM10.6803 0.568994C9.63313 1.40457 9.12577 3.0702 9.5823 4.48795C9.69993 4.85652 9.88357 5.2006 10.1243 5.50339C10.1512 5.48194 10.1775 5.46019 10.2036 5.43812C11.6583 4.19779 11.7091 1.86081 10.6803 0.569301V0.568994ZM15.4006 5.10782C14.2384 5.10706 13.1158 5.53086 12.2437 6.29966C11.3716 7.06845 10.8099 8.12938 10.6641 9.28323L10.7382 9.28752C10.7348 9.31234 10.7318 9.33685 10.729 9.36167C12.1314 9.45682 13.4623 10.0164 14.5118 10.9522C15.5613 11.8879 16.2697 13.1467 16.5253 14.5299C16.5495 14.524 16.5733 14.5179 16.5972 14.5115C17.7219 14.22 18.7019 13.5282 19.3534 12.5656C20.005 11.603 20.2835 10.4357 20.1367 9.28237C19.99 8.12906 19.428 7.06886 18.5562 6.30039C17.6844 5.53192 16.5624 5.10792 15.4006 5.10782Z" fill="#780543"/>
<path d="M12.8989 23.8691C12.9831 23.8691 13.0667 23.8725 13.1491 23.8795C13.1711 23.8811 13.1931 23.8832 13.2149 23.8853C13.2216 23.8614 13.2281 23.8372 13.2342 23.813C13.2434 23.7778 13.2522 23.742 13.2602 23.7061C13.3711 23.2113 13.3704 22.698 13.258 22.2035C13.1456 21.7091 12.9245 21.2459 12.6106 20.8478C12.2967 20.4497 11.8981 20.1266 11.4437 19.9022C10.9893 19.6777 10.4906 19.5575 9.98392 19.5503C9.96708 19.5503 9.95024 19.5503 9.93309 19.5503C9.10477 19.5504 8.30484 19.8524 7.6829 20.3999C7.06097 20.9473 6.65962 21.7028 6.55393 22.5249C6.5356 22.6695 6.52639 22.8151 6.52637 22.9609C6.52638 23.8478 6.87171 24.6999 7.4891 25.3362C8.10649 25.9726 8.94735 26.3432 9.83327 26.3694C9.85838 26.3694 9.88349 26.3694 9.9089 26.3709C10.0359 25.6697 10.4047 25.0352 10.9511 24.5781C11.4974 24.1209 12.1867 23.87 12.8989 23.8691Z" fill="#780543"/>
<path d="M13.6695 24.5293C13.2943 24.4079 12.8957 24.3771 12.5063 24.4392C12.1169 24.5013 11.7476 24.6546 11.4287 24.8867C11.1098 25.1188 10.8502 25.4231 10.6712 25.7746C10.4921 26.1262 10.3987 26.5152 10.3984 26.9098C10.3984 26.9355 10.3984 26.9613 10.4 26.987C10.4142 27.445 10.5538 27.8902 10.8036 28.2742C11.0534 28.6582 11.4038 28.9662 11.8165 29.1645C12.2292 29.3629 12.6884 29.444 13.1441 29.3991C13.5997 29.3541 14.0343 29.1848 14.4004 28.9096C14.7665 28.6345 15.05 28.264 15.2201 27.8386C15.3901 27.4132 15.4402 26.9492 15.3648 26.4973C15.2894 26.0454 15.0914 25.6228 14.7925 25.2758C14.4935 24.9288 14.1051 24.6706 13.6695 24.5293Z" fill="#780543"/>
<path d="M6.93569 20.3971C7.55174 19.6743 8.4077 19.1982 9.34636 19.0562C9.37147 19.0522 9.39719 19.0489 9.42261 19.0455C9.42536 19.0198 9.42812 18.994 9.43148 18.9686C9.719 16.6092 11.7325 14.7763 14.1662 14.7763C14.801 14.7756 15.4295 14.9024 16.0144 15.1492L16.0676 15.1722C16.0652 15.144 16.0624 15.1158 16.0597 15.0876C15.7749 12.2868 13.4978 10.0754 10.6685 9.89738C10.546 9.88982 10.4229 9.88595 10.2992 9.88574C10.1915 9.88574 10.0845 9.88871 9.97835 9.89463C9.65646 9.91208 9.33659 9.95646 9.0221 10.0273C6.43874 10.6095 4.50879 12.9192 4.50879 15.6802C4.50812 16.5904 4.72199 17.4879 5.13303 18.2998C5.54408 19.1117 6.14071 19.8151 6.87445 20.3529L6.93569 20.3971Z" fill="#780543"/>
<path d="M15.4007 5.10791C14.2384 5.10716 13.1159 5.53095 12.2438 6.29975C11.3717 7.06855 10.81 8.12947 10.6642 9.28333C10.6608 9.30784 10.658 9.33235 10.6553 9.35717C10.6798 9.35717 10.7046 9.35993 10.7291 9.36176C12.1315 9.45692 13.4624 10.0165 14.5119 10.9523C15.5614 11.888 16.2698 13.1468 16.5253 14.5299C16.5495 14.5241 16.5734 14.518 16.5973 14.5116C17.722 14.2201 18.7019 13.5282 19.3535 12.5657C20.0051 11.6031 20.2836 10.4358 20.1368 9.28247C19.99 8.12915 19.4281 7.06895 18.5563 6.30048C17.6844 5.53202 16.5625 5.10802 15.4007 5.10791Z" fill="#780543"/>
<path d="M6.1546 3.97913C7.34264 4.72308 8.18804 5.84821 8.74531 6.97733C8.89364 7.27719 9.0254 7.58498 9.14 7.8993C9.31072 8.36011 9.44024 8.83517 9.52703 9.31889C9.53162 9.3434 9.5356 9.36791 9.53958 9.39212C9.7037 9.37251 9.87027 9.35903 10.0381 9.35198L10.1128 9.34953L10.1183 9.29775L10.121 9.27477C10.1831 8.73075 10.3289 8.19961 10.5531 7.70014C10.5421 7.66704 10.5307 7.63365 10.5191 7.60025C10.3647 7.15155 10.1805 6.71364 9.96795 6.28943C9.70177 5.75864 9.38828 5.25297 9.0313 4.77855C8.46117 4.02233 7.75508 3.32954 6.89651 2.7918C6.73922 2.69543 6.55028 2.66507 6.37075 2.70733C6.19121 2.74959 6.0356 2.86105 5.93774 3.01748C5.83987 3.17391 5.80765 3.36267 5.84809 3.54274C5.88852 3.72281 5.99834 3.87963 6.15368 3.97913H6.1546Z" fill="#780543"/>
<path d="M8.42208 7.75621C8.46739 7.71433 8.51169 7.67062 8.55497 7.62506C8.45849 7.53321 8.35621 7.44765 8.24877 7.36891C6.81547 6.31027 4.67364 6.60687 3.59277 7.73905C4.77009 8.86295 7.05002 9.0327 8.42208 7.75621Z" fill="#780543"/>
<path d="M10.1243 5.50373C10.1513 5.48228 10.1776 5.46053 10.2036 5.43846C11.6584 4.19782 11.7092 1.86084 10.6804 0.569336C9.63319 1.40491 9.12582 3.07055 9.58236 4.48829C9.69998 4.85686 9.88363 5.20094 10.1243 5.50373Z" fill="#780543"/>
</g>
<defs>
<clipPath id="clip0_2909_10240">
<rect width="23.7684" height="29.4118" fill="white"/>
</clipPath>
</defs>
</svg>
